<?xml version="1.0" encoding="UTF-8" standalone="no"?>
<!-- Created with Inkscape (http://www.inkscape.org/) -->

<svg
   xmlns:dc="http://purl.org/dc/elements/1.1/"
   xmlns:cc="http://creativecommons.org/ns#"
   xmlns:rdf="http://www.w3.org/1999/02/22-rdf-syntax-ns#"
   xmlns:svg="http://www.w3.org/2000/svg"
   xmlns="http://www.w3.org/2000/svg"
   xmlns:sodipodi="http://sodipodi.sourceforge.net/DTD/sodipodi-0.dtd"
   xmlns:inkscape="http://www.inkscape.org/namespaces/inkscape"
   width="210mm"
   height="297mm"
   viewBox="0 0 744.09448819 1052.3622047"
   id="svg3659"
   version="1.1"
   inkscape:version="0.91 r13725"
   sodipodi:docname="camiseta.svg">
  <defs
     id="defs3661" />
  <sodipodi:namedview
     id="base"
     pagecolor="#ffffff"
     bordercolor="#666666"
     borderopacity="1.0"
     inkscape:pageopacity="0"
     inkscape:pageshadow="2"
     inkscape:zoom="0.50457912"
     inkscape:cx="372.04724"
     inkscape:cy="526.1811"
     inkscape:document-units="px"
     inkscape:current-layer="layer1"
     showgrid="false"
     inkscape:window-width="1366"
     inkscape:window-height="704"
     inkscape:window-x="0"
     inkscape:window-y="27"
     inkscape:window-maximized="1" />
  <metadata
     id="metadata3664">
    <rdf:RDF>
      <cc:Work
         rdf:about="">
        <dc:format>image/svg+xml</dc:format>
        <dc:type
           rdf:resource="http://purl.org/dc/dcmitype/StillImage" />
        <dc:title></dc:title>
      </cc:Work>
    </rdf:RDF>
  </metadata>
  <g
     inkscape:label="Capa 1"
     inkscape:groupmode="layer"
     id="layer1">
    <g
       id="g3487">
      <path
         id="circle3484"
         d="M 372.04688 172.31641 A 354.33072 354.33072 0 0 0 17.716797 526.64844 A 354.33072 354.33072 0 0 0 372.04688 880.97852 A 354.33072 354.33072 0 0 0 726.37891 526.64844 A 354.33072 354.33072 0 0 0 372.04688 172.31641 z M 372.04688 181.64844 A 345 345 0 0 1 717.04688 526.64844 A 345 345 0 0 1 372.04688 871.64844 A 345 345 0 0 1 27.046875 526.64844 A 345 345 0 0 1 372.04688 181.64844 z "
         style="fill:#000000" />
      <path
         id="path3492"
         d="M 127.9082 579.27148 C 120.64836 579.35967 113.16135 582.98095 105.1582 587.86914 C 81.444824 602.63449 54.255454 631.12956 54.107422 631.24609 L 47.640625 637.97656 L 56.888672 639.16992 C 84.428829 642.71953 111.56271 655.22719 131.68555 666.89648 C 137.96237 670.5295 143.45643 674.0342 148.1875 677.19531 C 151.20663 661.49319 155.4223 645.09885 159.41797 628.58203 C 156.36097 618.15903 152.87462 607.9608 148.97656 599.57422 C 146.6112 594.5254 144.11696 590.10576 141.29492 586.61914 C 138.46972 583.17347 135.25434 580.35418 130.89844 579.51953 C 129.89686 579.33681 128.89088 579.27148 127.9082 579.27148 z " />
      <path
         id="path3500"
         d="m 23.74486,302.1628 c 0,-20.89764 16.935434,-37.83622 37.839371,-37.83622 l 0,0 c 20.885039,0 37.820472,16.93858 37.83307,37.83622 l 0,0 c -0.0126,20.90079 -16.948031,37.82677 -37.83307,37.82677 l 0,0 c -20.903937,0 -37.839371,-16.92598 -37.839371,-37.82677 l 0,0 z m 9.411024,0 c 0.0315,15.68504 12.72126,28.39685 28.425197,28.41575 l 0,0 c 15.685039,-0.022 28.39685,-12.73071 28.418898,-28.41575 l 0,0 C 89.974782,286.45886 77.26612,273.76595 61.581081,273.7376 l 0,0 c -15.703937,0.0315 -28.393701,12.72126 -28.425197,28.4252 l 0,0 z"
         inkscape:connector-curvature="0" />
      <g
         transform="matrix(3.1496063,0,0,3.1496063,17.716514,126.07461)"
         id="g3502">
        <circle
           cx="13.928"
           cy="55.908001"
           r="2.7090001"
           id="circle3504" />
      </g>
      <path
         id="path3510"
         d="m 172.91966,806.29193 c -17.88976,-21.39527 -28.63622,-49.2063 -32.58582,-76.06299 l 0,0 c -0.74331,-5.05197 -1.05827,-10.23622 -1.05827,-15.53386 l 0,0 C 139.4362,665.81949 166.39053,605.51713 166.2425,554.9628 l 0,0 c 0,-3.74173 -0.14173,-7.43622 -0.4504,-11.05512 l 0,0 c -2.20787,-27.23779 -22.77795,-52.64567 -46.47559,-76.26457 l 0,0 -1.76693,-1.77322 0.47245,-2.44095 c 3.23464,-16.92913 10.21732,-33.2063 23.38897,-47.36063 l 0,0 c 20.02205,-22.44094 45.56536,-32.30866 71.29134,-32.26457 l 0,0 c 45.76063,0.0913 92.18268,30.34016 115.11496,73.97796 l 0,0 0.11024,0.22047 0.0976,0.21102 c 6.00315,15.15906 15.54645,30.89134 19.00787,47.6252 l 0,0 c 13.14646,45.01417 22.11968,95.71654 22.12598,145.5685 l 0,0 c -0.006,62.39685 -14.06299,123.62835 -52.16378,170.14174 l 0,0 -0.50393,0.62047 -0.68977,0.4126 c -20,12.19842 -43.23464,19.9622 -67.6063,19.9622 l 0,0 c -0.0378,0 -0.0661,0 -0.10393,0 l 0,0 c -32.01575,0 -57.35433,-14.88819 -75.17166,-36.25197 l 0,0 z m 2.23937,-263.17795 c 0.33701,3.90866 0.48504,7.86142 0.48504,11.84882 l 0,0 c -0.14803,53.47087 -27.13386,114.03779 -26.96693,159.73228 l 0,0 c 0,4.91024 0.30237,9.64095 0.97323,14.16063 l 0,0 c 3.69764,25.37638 13.96536,51.71654 30.48819,71.40158 l 0,0 c 16.56063,19.71023 38.97638,32.84409 68.06614,32.87874 l 0,0 c 22.07874,0 43.42992,-6.97008 62.0252,-18.17323 l 0,0 c 35.84567,-44.08189 49.54016,-102.7937 49.53386,-163.55906 l 0,0 c 0,-48.7811 -8.82835,-98.7622 -21.80788,-143.09291 l 0,0 4.52284,-1.31024 4.60787,-0.92913 -4.60787,0.92913 -4.52284,1.31024 -0.0567,-0.19528 -0.0378,-0.20472 c -2.82835,-14.45039 -11.97166,-29.90236 -18.46615,-45.9559 l 0,0 C 298.12911,421.3817 254.18896,393.10768 212.70864,393.20217 l 0,0 c -23.37638,0.0378 -45.94016,8.68346 -64.33386,29.2 l 0,0 c -11.27559,12.16063 -17.43307,25.70079 -20.61417,40.39055 l 0,0 c 23.24724,23.5685 44.67401,49.59055 47.39842,80.32126 l 0,0 z"
         inkscape:connector-curvature="0" />
      <path
         id="path3514"
         d="M 229.76953 180.52539 C 184.67346 180.57894 149.3518 201.63374 148.9707 201.81641 C 79.175431 246.39594 47.707207 312.76466 47.634766 361.33789 C 47.641065 375.19931 50.210227 387.69396 55.451172 397.86719 C 67.359834 420.74908 94.796737 443.0005 119.31641 467.63672 L 125.58984 473.91797 L 127.26953 465.20508 C 130.2837 449.58618 136.47894 435.22168 148.375 422.39648 C 166.7687 401.88624 189.33304 393.24095 212.70312 393.20312 C 254.18974 393.10864 298.12209 421.37946 319.39453 461.95898 C 325.88902 478.00308 335.02668 493.46367 337.86133 507.91406 L 337.89844 508.11914 L 337.95508 508.31445 C 350.94091 552.65146 359.76367 602.62515 359.76367 651.40625 C 359.77627 712.46137 345.95182 771.42531 309.71875 815.58594 L 315.80078 822.57617 C 348.12204 802.79349 372.20528 771.49746 378.92969 740.72266 C 383.67615 718.55888 391.06508 635.72863 391.08398 541.36328 C 391.08398 484.08454 388.333 422.76106 380.45898 368.64453 C 372.54809 314.5122 359.73832 267.63423 338.63086 238.75781 L 338.63281 238.75586 C 305.59974 193.60941 264.65457 180.43409 229.76953 180.52539 z M 262.2168 230.66016 A 42.047245 42.047245 0 0 1 304.26367 272.70703 A 42.047245 42.047245 0 0 1 262.2168 314.75586 A 42.047245 42.047245 0 0 1 220.16992 272.70703 A 42.047245 42.047245 0 0 1 262.2168 230.66016 z M 173.58398 329.64453 C 191.99965 329.79205 207.42969 335.66522 207.42969 346.01758 C 207.42969 362.58451 197.23242 366.40625 197.23242 366.40625 C 197.23242 366.40625 161.55198 370.22635 139.89844 379.15234 C 118.2323 388.06572 104.22656 400.8125 104.22656 400.8125 C 88.932077 385.51171 111.87324 347.2903 139.89844 335.83203 C 150.41025 331.52927 162.53459 329.55602 173.58398 329.64453 z " />
      <path
         id="path3522"
         d="m 215.45825,272.70768 c 0.0126,-25.82047 20.92913,-46.74961 46.75275,-46.74961 l 0,0 c 25.82362,0 46.75276,20.92914 46.75906,46.74961 l 0,0 c -0.006,25.82047 -20.93229,46.74961 -46.75906,46.74961 l 0,0 c -25.82362,-0.003 -46.74016,-20.92914 -46.75275,-46.74961 l 0,0 z m 9.41102,0 c 0.0378,20.62362 16.72756,37.31339 37.33858,37.34173 l 0,0 c 20.63307,-0.0315 37.31654,-16.72126 37.34488,-37.34173 l 0,0 c -0.0315,-20.62362 -16.71496,-37.30709 -37.34488,-37.34173 l 0,0 c -20.61102,0.0346 -37.30078,16.71811 -37.33858,37.34173 l 0,0 z"
         inkscape:connector-curvature="0" />
      <g
         transform="matrix(3.1496063,0,0,3.1496063,17.716514,126.07461)"
         id="g3524">
        <path
           inkscape:connector-curvature="0"
           d="m 81.068,46.556 c 0,1.897 -1.539,3.44 -3.441,3.44 -1.898,0 -3.436,-1.543 -3.436,-3.44 0,-1.897 1.537,-3.438 3.436,-3.438 1.902,-0.001 3.441,1.54 3.441,3.438 z"
           id="path3526" />
      </g>
      <g
         style="fill:#000000"
         transform="matrix(3.1496063,0,0,3.1496063,17.716514,126.07461)"
         id="g3532">
        <polygon
           style="fill:#000000"
           points="41.102,226.535 56.422,215.393 53.916,210.381 38.377,221.742 29.689,211.633 33.867,222.074 25.512,217.898 30.107,224.58 22.588,223.746 45.891,235.582 "
           id="polygon3534" />
      </g>
      <path
         id="path3540"
         d="M 616.18945 579.25586 C 615.20047 579.27161 614.18215 579.34315 613.16797 579.51953 C 608.83726 580.35418 605.61576 583.17391 602.79688 586.61328 C 595.48167 595.81412 589.55166 611.88845 584.67969 628.57227 C 588.67338 645.08204 592.88628 661.46976 595.90625 677.16602 C 615.82742 663.86711 651.14005 643.80922 687.20312 639.17383 L 696.4375 637.98047 L 689.98438 631.25 C 689.92768 631.18071 677.73449 618.46494 662.66992 605.65234 C 655.12977 599.24289 646.8718 592.79827 638.93164 587.86914 C 630.92849 582.9841 623.43669 579.3598 616.18945 579.25586 z " />
      <path
         id="path3548"
         d="m 644.68029,302.1565 c 0.006,-20.89764 16.93544,-37.82992 37.84567,-37.82992 l 0,0 c 20.88504,0 37.82677,16.93228 37.82677,37.82992 l 0,0 c 0,20.90709 -16.94173,37.82677 -37.82677,37.83307 l 0,0 c -20.91023,0 -37.84252,-16.93228 -37.84567,-37.83307 l 0,0 z m 37.84252,28.43465 c 15.68504,-0.0315 28.39055,-12.74016 28.4189,-28.4315 l 0,0 c -0.0315,-15.69764 -12.73386,-28.39055 -28.4189,-28.4189 l 0,0 c -15.71023,0.0315 -28.40315,12.72126 -28.43149,28.4189 l 0,0 c 0.0315,15.69134 12.72126,28.4 28.43149,28.4315 l 0,0 z"
         inkscape:connector-curvature="0" />
      <g
         transform="matrix(3.1496063,0,0,3.1496063,17.716514,126.07461)"
         id="g3550">
        <circle
           cx="211.07401"
           cy="55.908001"
           r="2.7090001"
           id="circle3552" />
      </g>
      <path
         id="path3558"
         d="m 495.89604,842.5439 c -24.37795,0 -47.6126,-7.76378 -67.6063,-19.9622 l 0,0 -0.67716,-0.4126 -0.51654,-0.62047 C 388.98581,775.03524 374.92596,713.79744 374.91966,651.40689 l 0,0 c 0.006,-49.85196 8.97638,-100.55433 22.13859,-145.5685 l 0,0 c 3.45826,-16.73386 12.99842,-32.46614 19.00157,-47.6252 l 0,0 0.085,-0.22992 0.11654,-0.20157 c 22.93228,-43.6378 69.34803,-73.88662 115.12756,-73.97796 l 0,0 c 25.70708,-0.0441 51.25354,9.82363 71.22204,32.19843 l 0,0 c 13.2189,14.22362 20.21418,30.50079 23.45512,47.43622 l 0,0 0.46614,2.43465 -1.76693,1.77322 c -23.69449,23.6189 -44.26141,49.02363 -46.46929,76.26457 l 0,0 c -0.30866,3.62205 -0.45669,7.31339 -0.44409,11.06142 l 0,0 c -0.16063,50.55433 26.78425,110.84409 26.96378,159.70708 l 0,0 c -0.006,5.31654 -0.33701,10.50079 -1.07087,15.54646 l 0,0 c -3.94331,26.86299 -14.68346,54.67402 -32.57953,76.06929 l 0,0 c -17.82047,21.36378 -43.15275,36.25197 -75.17165,36.25197 l 0,0 c -0.0283,-0.003 -0.0598,-0.003 -0.0976,-0.003 l 0,0 z m 0,-9.40787 c 29.08977,-0.0378 51.50236,-13.17166 68.05984,-32.87874 l 0,0 c 16.51024,-19.68504 26.78426,-46.0252 30.48819,-71.38898 l 0,0 c 0.65827,-4.53228 0.96693,-9.26299 0.96063,-14.19213 l 0,0 C 595.57793,669.00059 568.59525,608.43367 568.43777,554.9691 l 0,0 c 0.0189,-3.9937 0.16063,-7.94331 0.50394,-11.85512 l 0,0 c 2.71181,-30.72126 24.13858,-56.75591 47.39843,-80.32756 l 0,0 c -3.18111,-14.68346 -9.33859,-28.22992 -20.67402,-40.45354 l 0,0 c -18.34961,-20.44725 -40.90709,-29.09292 -64.27087,-29.13071 l 0,0 c -41.49291,-0.0945 -85.43307,28.17638 -106.69291,68.7559 l 0,0 c -6.50079,16.05355 -15.63779,31.50552 -18.46614,45.95591 l 0,0 -0.0441,0.22047 -0.063,0.17953 c -12.96693,44.32756 -21.80787,94.30866 -21.79527,143.09291 l 0,0 c -0.0126,60.75906 13.69449,119.47717 49.54015,163.55906 l 0,0 c 18.58583,11.2 39.94331,18.17008 62.02205,18.17008 l 0,0 z"
         inkscape:connector-curvature="0" />
      <path
         id="path3562"
         d="M 514.57031 185.22852 C 480.74448 185.16912 441.58401 197.50245 409.25586 241.53906 C 335.3472 342.19732 359.55938 692.59032 369.75781 739.73047 C 376.05072 768.86433 399.39459 799.44546 430.73633 818.57617 C 363.85129 736.98877 372.17227 607.59919 401.62109 507.00391 C 404.75809 491.31887 414.16154 475.63653 420.43555 459.96094 C 454.92689 394.10898 545.86404 359.62442 599.16797 419.19922 C 611.7223 432.72363 618.32525 448.04673 621.44336 464.31445 C 646.19926 439.55854 673.43644 417.13847 684.47266 395.71484 C 706.1262 353.6613 680.65247 261.92703 592.73438 205.86719 C 592.73438 205.86719 558.06066 185.30488 514.57031 185.22852 z M 481.87695 230.66016 A 42.047245 42.047245 0 0 1 523.92383 272.70703 A 42.047245 42.047245 0 0 1 481.87695 314.75586 A 42.047245 42.047245 0 0 1 439.83008 272.70703 A 42.047245 42.047245 0 0 1 481.87695 230.66016 z M 570.51367 329.64453 C 581.56418 329.55602 593.68936 331.52927 604.20117 335.83203 C 632.22637 347.2903 655.16754 385.51171 639.87305 400.8125 C 639.87305 400.8125 625.86102 388.06572 604.20117 379.15234 C 582.54133 370.22635 546.86328 366.40625 546.86328 366.40625 C 546.86328 366.40625 536.66406 362.58451 536.66406 346.01758 C 536.66406 335.66522 552.09617 329.79205 570.51367 329.64453 z " />
      <path
         id="path3564"
         d="M 365.15588,740.72658 C 360.39998,718.5628 353.0173,635.7376 352.98896,541.3754 l 0,0 c 0,-57.27244 2.7496,-118.61103 10.62362,-172.72756 l 0,0 c 7.91811,-54.13858 20.73071,-101.02047 41.85512,-129.89606 l 0,0 c 33.03307,-45.14646 73.97165,-58.32441 108.86299,-58.22993 l 0,0 c 45.07716,0.0536 80.4063,21.10867 80.92913,21.37323 l 0,0 c 69.66614,44.49764 101.13071,110.87559 101.2063,159.44567 l 0,0 c -0.0126,13.86142 -2.58268,26.34646 -7.81732,36.52284 l 0,0 c -11.92756,22.88504 -39.34488,45.13385 -63.87717,69.77008 l 0,0 -6.27401,6.28031 -1.66615,-8.71181 c -3.02047,-15.6189 -9.22204,-29.98425 -21.1685,-42.86929 l 0,0 C 577.32596,401.88563 554.75588,393.23996 531.3921,393.20217 l 0,0 c -41.49291,-0.0945 -85.43307,28.17638 -106.69291,68.7559 l 0,0 c -6.50079,16.0441 -15.63149,31.50552 -18.46614,45.95591 l 0,0 -0.0441,0.22047 -0.063,0.17953 c -12.96693,44.33386 -21.80787,94.30866 -21.80787,143.09291 l 0,0 c 0,61.04882 13.82992,120.01575 50.05669,164.17953 l 0,0 -6.08504,6.99528 c -32.31811,-19.78583 -56.40945,-51.07717 -63.13386,-81.85512 l 0,0 z m 7.77008,-370.72126 c -7.77638,53.43622 -10.53228,114.40945 -10.53228,171.37008 l 0,0 c -0.0315,93.64094 7.51181,176.95433 11.95905,197.35748 l 0,0 c 4.22678,19.80787 17.14331,40.84724 35.39528,57.97165 l 0,0 c -25.11811,-42.45669 -34.8252,-93.48661 -34.8315,-145.30079 l 0,0 c 0.006,-49.84252 8.97638,-100.54803 22.13859,-145.5685 l 0,0 c 3.45826,-16.74016 12.99842,-32.46614 19.00787,-47.6252 l 0,0 0.085,-0.22992 0.10394,-0.20157 c 22.93858,-43.6441 69.35433,-73.88662 115.13386,-73.99055 l 0,0 c 25.70708,-0.0315 51.25354,9.84252 71.22204,32.20472 l 0,0 c 11.03622,11.86772 17.72914,25.16221 21.52441,39.07402 l 0,0 c 23.16221,-22.53859 46.8063,-43.14016 56.14488,-61.50237 l 0,0 c 4.37481,-8.47874 6.77166,-19.5307 6.76536,-32.22047 l 0,0 c 0.0661,-44.65512 -29.67559,-108.7559 -96.72126,-151.43307 l 0,0 c -0.006,0.006 -1.9811,-1.1811 -5.78898,-3.05197 l 0,0 c -3.81417,-1.87086 -9.38267,-4.3811 -16.27086,-6.89449 l 0,0 c -13.79213,-5.03307 -32.89134,-10.03779 -53.93701,-10.03779 l 0,0 c -32.65197,0.0945 -69.82047,11.67874 -101.28504,54.4 l 0,0 c -19.42362,26.33386 -32.39685,72.25827 -40.11339,125.67874 l 0,0 z"
         inkscape:connector-curvature="0" />
      <path
         id="path3570"
         d="m 435.13699,272.70768 c 0,-25.82047 20.92283,-46.74331 46.74645,-46.74961 l 0,0 c 25.81103,0.006 46.74016,20.92914 46.75276,46.74961 l 0,0 c -0.0126,25.82677 -20.93858,46.74961 -46.75276,46.74961 l 0,0 c -25.82362,-0.003 -46.74645,-20.92284 -46.74645,-46.74961 l 0,0 z m 46.74645,37.34173 c 20.62048,-0.0315 37.29764,-16.73071 37.33544,-37.34173 l 0,0 c -0.0378,-20.62362 -16.71496,-37.30709 -37.33544,-37.34173 l 0,0 c -20.62677,0.0378 -37.31023,16.72126 -37.34488,37.34173 l 0,0 c 0.0346,20.61417 16.71811,37.31024 37.34488,37.34173 l 0,0 z"
         inkscape:connector-curvature="0" />
      <g
         transform="matrix(3.1496063,0,0,3.1496063,17.716514,126.07461)"
         id="g3572">
        <circle
           cx="147.37199"
           cy="46.556"
           r="3.438"
           id="circle3574" />
      </g>
      <g
         style="fill:#000000"
         transform="matrix(3.1496063,0,0,3.1496063,17.716514,126.07461)"
         id="g3580">
        <polygon
           style="fill:#000000"
           points="183.9,226.535 168.58,215.393 171.086,210.381 186.625,221.742 195.312,211.633 191.133,222.074 199.486,217.898 194.893,224.58 202.414,223.746 179.111,235.582 "
           id="polygon3582" />
      </g>
    </g>
    <text
       xml:space="preserve"
       style="font-style:normal;font-weight:bold;font-size:40px;line-height:125%;font-family:Sans;-inkscape-font-specification:'Sans Bold';letter-spacing:0px;word-spacing:0px;fill:#000000;fill-opacity:1;stroke:none;stroke-width:1px;stroke-linecap:butt;stroke-linejoin:miter;stroke-opacity:1"
       x="13.111697"
       y="138.07649"
       id="text3769"
       sodipodi:linespacing="125%"><tspan
         sodipodi:role="line"
         id="tspan3771"
         x="13.111697"
         y="138.07649"
         style="font-size:50px">Oficina de Software Libre</tspan></text>
    <text
       xml:space="preserve"
       style="font-style:italic;font-variant:normal;font-weight:normal;font-stretch:normal;font-size:55px;line-height:125%;font-family:Garamond;-inkscape-font-specification:'Garamond Italic';letter-spacing:0px;word-spacing:0px;fill:#000000;fill-opacity:1;stroke:none;stroke-width:1px;stroke-linecap:butt;stroke-linejoin:miter;stroke-opacity:1"
       x="0.53949016"
       y="980.93365"
       id="text3773"
       sodipodi:linespacing="125%"><tspan
         sodipodi:role="line"
         id="tspan3775"
         x="0.53949016"
         y="980.93365"
         style="font-style:normal;font-variant:normal;font-weight:normal;font-stretch:normal;font-size:77.5px;font-family:Garamond;-inkscape-font-specification:Garamond">Universidad de Granada</tspan></text>
    <flowRoot
       xml:space="preserve"
       id="flowRoot3777"
       style="fill:black;stroke:none;stroke-opacity:1;stroke-width:1px;stroke-linejoin:miter;stroke-linecap:butt;fill-opacity:1;font-family:Sans;font-style:normal;font-weight:bold;font-size:40px;line-height:125%;letter-spacing:0px;word-spacing:0px;-inkscape-font-specification:Sans Bold"><flowRegion
         id="flowRegion3779"><rect
           id="rect3781"
           width="1137.1428"
           height="1380"
           x="-257.14285"
           y="-116.20922" /></flowRegion><flowPara
         id="flowPara3783" /></flowRoot>    <flowRoot
       xml:space="preserve"
       id="flowRoot3390"
       style="fill:black;stroke:none;stroke-opacity:1;stroke-width:1px;stroke-linejoin:miter;stroke-linecap:butt;fill-opacity:1;font-family:Sans;font-style:normal;font-weight:bold;font-size:40px;line-height:125%;letter-spacing:0px;word-spacing:0px;-inkscape-font-specification:Sans Bold"><flowRegion
         id="flowRegion3392"><rect
           id="rect3394"
           width="1214.2858"
           height="1425.7142"
           x="-200"
           y="-233.35208" /></flowRegion><flowPara
         id="flowPara3396" /></flowRoot>  </g>
</svg>
