<?xml version="1.0" encoding="UTF-8" standalone="no"?>
<!-- Created with Inkscape (http://www.inkscape.org/) -->

<svg
   xmlns:dc="http://purl.org/dc/elements/1.1/"
   xmlns:cc="http://creativecommons.org/ns#"
   xmlns:rdf="http://www.w3.org/1999/02/22-rdf-syntax-ns#"
   xmlns:svg="http://www.w3.org/2000/svg"
   xmlns="http://www.w3.org/2000/svg"
   xmlns:sodipodi="http://sodipodi.sourceforge.net/DTD/sodipodi-0.dtd"
   xmlns:inkscape="http://www.inkscape.org/namespaces/inkscape"
   width="210mm"
   height="297mm"
   viewBox="0 0 744.09448819 1052.3622047"
   id="svg3659"
   version="1.1"
   inkscape:version="0.91 r13725"
   sodipodi:docname="camiseta.svg">
  <defs
     id="defs3661" />
  <sodipodi:namedview
     id="base"
     pagecolor="#ffffff"
     bordercolor="#666666"
     borderopacity="1.0"
     inkscape:pageopacity="0.0"
     inkscape:pageshadow="2"
     inkscape:zoom="0.35"
     inkscape:cx="-3.3629905"
     inkscape:cy="413.14004"
     inkscape:document-units="px"
     inkscape:current-layer="layer1"
     showgrid="false"
     inkscape:window-width="1366"
     inkscape:window-height="704"
     inkscape:window-x="0"
     inkscape:window-y="27"
     inkscape:window-maximized="1" />
  <metadata
     id="metadata3664">
    <rdf:RDF>
      <cc:Work
         rdf:about="">
        <dc:format>image/svg+xml</dc:format>
        <dc:type
           rdf:resource="http://purl.org/dc/dcmitype/StillImage" />
        <dc:title />
      </cc:Work>
    </rdf:RDF>
  </metadata>
  <g
     inkscape:label="Capa 1"
     inkscape:groupmode="layer"
     id="layer1">
    <g
       id="g3446">
      <circle
         id="circle3484"
         r="354.33072"
         cy="526.64783"
         cx="372.04724"
         style="fill:#000000" />
      <circle
         id="circle3484-7"
         r="345"
         cy="526.64783"
         cx="372.04724"
         style="fill:#ffffff" />
      <g
         transform="matrix(3.1496063,0,0,3.1496063,17.716514,126.07461)"
         id="g3490">
        <path
           inkscape:connector-curvature="0"
           d="m 12.631,161.426 c 0,0 16.457,-17.162 23.041,-15.986 6.584,1.176 11.99,32.209 11.99,32.209 0,0 -16.928,-13.872 -35.031,-16.223 z"
           id="path3492" />
        <path
           inkscape:connector-curvature="0"
           d="m 46.715,178.805 c -0.004,-0.002 -1.012,-0.832 -2.848,-2.146 l 0,0 c -1.84,-1.313 -4.484,-3.097 -7.682,-4.948 l 0,0 c -6.389,-3.705 -15.004,-7.676 -23.748,-8.803 l 0,0 0.193,-1.482 1.08,1.035 -1.08,-1.035 -0.193,1.482 -2.936,-0.379 2.053,-2.137 c 0.047,-0.037 8.68,-9.084 16.209,-13.772 l 0,0 c 2.541,-1.552 4.918,-2.702 7.223,-2.73 l 0,0 c 0.312,0 0.631,0.021 0.949,0.079 l 0,0 c 1.383,0.265 2.404,1.16 3.301,2.254 l 0,0 c 0.896,1.107 1.688,2.51 2.439,4.113 l 0,0 c 1.492,3.21 2.797,7.254 3.898,11.254 l 0,0 c 2.197,7.989 3.555,15.777 3.559,15.801 l 0,0 0.691,3.963 -3.108,-2.549 0,0 z m -1.248,-4.668 C 45,171.824 44.319,168.662 43.463,165.292 l 0,0 c -1.666,-6.69 -4.156,-14.31 -6.547,-17.19 l 0,0 c -0.662,-0.83 -1.244,-1.164 -1.514,-1.193 l 0,0 c -0.117,-0.021 -0.252,-0.033 -0.416,-0.033 l 0,0 c -1.814,-0.082 -5.639,1.994 -9.236,4.775 l 0,0 c -3.645,2.758 -7.268,6.11 -9.566,8.342 l 0,0 c -0.154,0.148 -0.303,0.293 -0.445,0.434 l 0,0 c 12.786,2.495 24.366,9.882 29.728,13.71 l 0,0 z"
           id="path3494" />
      </g>
      <g
         transform="matrix(3.1496063,0,0,3.1496063,17.716514,126.07461)"
         id="g3496">
        <circle
           style="fill:#ffffff"
           cx="13.926"
           cy="55.908001"
           r="10.518"
           id="circle3498" />
        <path
           inkscape:connector-curvature="0"
           d="m 1.914,55.908 c 0,-6.635 5.377,-12.013 12.014,-12.013 l 0,0 c 6.631,0 12.008,5.378 12.012,12.013 l 0,0 c -0.004,6.636 -5.381,12.01 -12.012,12.01 l 0,0 c -6.637,0 -12.014,-5.374 -12.014,-12.01 l 0,0 z m 2.988,0 c 0.01,4.98 4.039,9.016 9.025,9.022 l 0,0 c 4.98,-0.007 9.016,-4.042 9.023,-9.022 l 0,0 c -0.008,-4.986 -4.043,-9.016 -9.023,-9.025 l 0,0 c -4.986,0.01 -9.015,4.039 -9.025,9.025 l 0,0 z"
           id="path3500" />
      </g>
      <g
         transform="matrix(3.1496063,0,0,3.1496063,17.716514,126.07461)"
         id="g3502">
        <circle
           cx="13.928"
           cy="55.908001"
           r="2.7090001"
           id="circle3504" />
      </g>
      <g
         transform="matrix(3.1496063,0,0,3.1496063,17.716514,126.07461)"
         id="g3506">
        <path
           style="fill:#ffffff"
           inkscape:connector-curvature="0"
           d="m 103.111,120.945 c -0.996,-4.979 -3.984,-9.959 -5.975,-14.936 C 86.188,85.102 57.314,74.152 40.391,93.067 c -3.988,4.294 -6.082,9.159 -7.074,14.324 7.561,7.567 14.391,15.82 15.186,25.146 1.617,19.013 -10.52,42.477 -8.09,59.061 2.426,16.588 13.35,34.389 32.768,34.389 7.416,0 14.537,-2.367 20.689,-6.117 21.232,-25.905 18.591,-66.985 9.241,-98.925 z"
           id="path3508" />
        <path
           inkscape:connector-curvature="0"
           d="m 49.277,215.969 c -5.68,-6.793 -9.092,-15.623 -10.346,-24.15 l 0,0 c -0.236,-1.604 -0.336,-3.25 -0.336,-4.932 l 0,0 c 0.051,-15.518 8.609,-34.664 8.562,-50.715 l 0,0 c 0,-1.188 -0.045,-2.361 -0.143,-3.51 l 0,0 c -0.701,-8.648 -7.232,-16.715 -14.756,-24.214 l 0,0 -0.561,-0.563 0.15,-0.775 c 1.027,-5.375 3.244,-10.543 7.426,-15.037 l 0,0 C 45.63,84.948 53.74,81.815 61.908,81.829 l 0,0 c 14.529,0.029 29.268,9.633 36.549,23.488 l 0,0 0.035,0.07 0.031,0.067 c 1.906,4.813 4.936,9.808 6.035,15.121 l 0,0 c 4.174,14.292 7.023,30.39 7.025,46.218 l 0,0 c -0.002,19.811 -4.465,39.252 -16.562,54.02 l 0,0 -0.16,0.197 -0.219,0.131 c -6.35,3.873 -13.727,6.338 -21.465,6.338 l 0,0 c -0.012,0 -0.021,0 -0.033,0 l 0,0 c -10.165,0 -18.21,-4.727 -23.867,-11.51 l 0,0 z m 0.711,-83.559 c 0.107,1.241 0.154,2.496 0.154,3.762 l 0,0 c -0.047,16.977 -8.615,36.207 -8.562,50.715 l 0,0 c 0,1.559 0.096,3.061 0.309,4.496 l 0,0 c 1.174,8.057 4.434,16.42 9.68,22.67 l 0,0 c 5.258,6.258 12.375,10.428 21.611,10.439 l 0,0 c 7.01,0 13.789,-2.213 19.693,-5.77 l 0,0 c 11.381,-13.996 15.729,-32.637 15.727,-51.93 l 0,0 c 0,-15.488 -2.803,-31.357 -6.924,-45.432 l 0,0 1.436,-0.416 1.463,-0.295 -1.463,0.295 -1.436,0.416 -0.018,-0.062 -0.012,-0.065 c -0.898,-4.588 -3.801,-9.494 -5.863,-14.591 l 0,0 C 89.031,93.76 75.08,84.783 61.91,84.813 l 0,0 c -7.422,0.012 -14.586,2.757 -20.426,9.271 l 0,0 c -3.58,3.861 -5.535,8.16 -6.545,12.824 l 0,0 c 7.381,7.483 14.184,15.745 15.049,25.502 l 0,0 z"
           id="path3510" />
      </g>
      <g
         transform="matrix(3.1496063,0,0,3.1496063,17.716514,126.07461)"
         id="g3512">
        <path
           inkscape:connector-curvature="0"
           d="M 100.689,36.66 C 77.225,4.702 42.434,25.334 42.434,25.334 14.52,43.133 6.432,72.259 13.309,85.611 c 3.502,6.802 12.15,13.92 20.008,21.78 0.992,-5.165 3.086,-10.03 7.074,-14.324 16.924,-18.915 45.797,-7.966 56.746,12.942 1.99,4.977 4.979,9.956 5.975,14.936 9.35,31.939 11.99,73.02 -9.242,98.924 9.947,-6.074 17.357,-15.783 19.357,-25.033 3.238,-14.967 10.925,-126.217 -12.538,-158.176 z"
           id="path3514" />
        <path
           inkscape:connector-curvature="0"
           d="m 92.711,218.92 c 11.504,-14.021 15.893,-32.742 15.889,-52.127 l 0,0 c 0,-15.488 -2.801,-31.355 -6.924,-45.432 l 0,0 -0.018,-0.062 -0.012,-0.065 c -0.9,-4.588 -3.801,-9.497 -5.863,-14.591 l 0,0 C 89.029,93.759 75.08,84.783 61.908,84.813 l 0,0 c -7.42,0.012 -14.584,2.757 -20.424,9.269 l 0,0 c -3.777,4.072 -5.744,8.633 -6.701,13.592 l 0,0 -0.533,2.766 -1.992,-1.994 C 24.473,100.624 15.762,93.559 11.981,86.294 l 0,0 C 10.317,83.064 9.501,79.097 9.499,74.696 l 0,0 C 9.522,59.274 19.513,38.202 41.673,24.048 l 0,0 c 0.121,-0.058 11.336,-6.743 25.654,-6.76 l 0,0 c 11.076,-0.029 24.076,4.154 34.564,18.488 l 0,0 -1.201,0.885 -1.207,0.885 C 89.49,23.98 77.689,20.303 67.326,20.272 l 0,0 C 57.297,20.267 48.668,23.863 45.033,25.648 l 0,0 c -1.146,0.562 -1.768,0.926 -1.795,0.945 l 0,0 C 21.91,40.17 12.461,60.52 12.484,74.695 l 0,0 c -0.002,4.031 0.764,7.537 2.15,10.232 l 0,0 c 2.965,5.83 10.473,12.371 17.826,19.53 l 0,0 c 1.207,-4.415 3.33,-8.638 6.814,-12.386 l 0,0 C 45.631,84.948 53.741,81.813 61.907,81.823 l 0,0 c 14.531,0.033 29.268,9.635 36.551,23.492 l 0,0 0.037,0.07 0.029,0.067 c 1.906,4.813 4.936,9.806 6.035,15.121 l 0,0 c 4.174,14.294 7.025,30.393 7.025,46.218 l 0,0 c 0,16.453 -3.08,32.652 -11.057,46.133 l 0,0 c 5.793,-5.438 9.895,-12.117 11.24,-18.406 l 0,0 c 1.412,-6.479 3.801,-32.933 3.793,-62.664 l 0,0 c 0,-18.082 -0.875,-37.441 -3.34,-54.407 l 0,0 C 109.765,60.483 105.652,45.905 99.48,37.544 l 0,0 1.207,-0.885 1.201,-0.885 c 6.703,9.168 10.771,24.053 13.283,41.242 l 0,0 c 2.5,17.182 3.373,36.652 3.373,54.838 l 0,0 c -0.006,29.961 -2.352,56.26 -3.859,63.297 l 0,0 c -2.135,9.771 -9.781,19.707 -20.043,25.988 l 0,0 -1.931,-2.219 0,0 z"
           id="path3516" />
      </g>
      <g
         transform="matrix(3.1496063,0,0,3.1496063,17.716514,126.07461)"
         id="g3518">
        <circle
           style="fill:#ffffff"
           cx="77.628998"
           cy="46.556"
           r="13.35"
           id="circle3520" />
        <path
           inkscape:connector-curvature="0"
           d="m 62.783,46.556 c 0.004,-8.198 6.645,-14.843 14.844,-14.843 l 0,0 c 8.199,0 14.844,6.645 14.846,14.843 l 0,0 c -0.002,8.198 -6.646,14.843 -14.846,14.843 l 0,0 C 69.428,61.398 62.787,54.754 62.783,46.556 l 0,0 z m 2.988,0 c 0.012,6.548 5.311,11.847 11.855,11.856 l 0,0 c 6.551,-0.01 11.848,-5.309 11.857,-11.856 l 0,0 C 89.473,40.008 84.176,34.711 77.626,34.7 l 0,0 c -6.544,0.011 -11.843,5.308 -11.855,11.856 l 0,0 z"
           id="path3522" />
      </g>
      <g
         transform="matrix(3.1496063,0,0,3.1496063,17.716514,126.07461)"
         id="g3524">
        <path
           inkscape:connector-curvature="0"
           d="m 81.068,46.556 c 0,1.897 -1.539,3.44 -3.441,3.44 -1.898,0 -3.436,-1.543 -3.436,-3.44 0,-1.897 1.537,-3.438 3.436,-3.438 1.902,-0.001 3.441,1.54 3.441,3.438 z"
           id="path3526" />
      </g>
      <g
         style="fill:#ffffff"
         transform="matrix(3.1496063,0,0,3.1496063,17.716514,126.07461)"
         id="g3528">
        <path
           style="fill:#ffffff"
           inkscape:connector-curvature="0"
           d="m 27.467,87.229 c 0,0 4.447,-4.047 11.326,-6.877 6.875,-2.834 18.203,-4.047 18.203,-4.047 0,0 3.238,-1.213 3.238,-6.473 0,-5.259 -12.541,-6.877 -21.441,-3.234 -8.898,3.638 -16.182,15.773 -11.326,20.631 z"
           id="path3530" />
      </g>
      <g
         style="fill:#000000"
         transform="matrix(3.1496063,0,0,3.1496063,17.716514,126.07461)"
         id="g3532">
        <polygon
           style="fill:#000000"
           points="22.588,223.746 45.891,235.582 41.102,226.535 56.422,215.393 53.916,210.381 38.377,221.742 29.689,211.633 33.867,222.074 25.512,217.898 30.107,224.58 "
           id="polygon3534" />
      </g>
      <g
         transform="matrix(3.1496063,0,0,3.1496063,17.716514,126.07461)"
         id="g3538">
        <path
           inkscape:connector-curvature="0"
           d="m 212.371,161.426 c 0,0 -16.459,-17.162 -23.041,-15.986 -6.584,1.176 -11.988,32.209 -11.988,32.209 0,0 16.926,-13.872 35.029,-16.223 z"
           id="path3540" />
        <path
           inkscape:connector-curvature="0"
           d="m 175.869,177.391 c 0.004,-0.021 1.041,-5.986 2.771,-12.828 l 0,0 c 1.768,-6.872 4.066,-14.497 7.123,-18.342 l 0,0 c 0.895,-1.092 1.918,-1.987 3.293,-2.252 l 0,0 c 0.322,-0.056 0.645,-0.079 0.959,-0.084 l 0,0 c 2.301,0.033 4.68,1.184 7.221,2.735 l 0,0 c 2.521,1.565 5.143,3.611 7.537,5.646 l 0,0 c 4.783,4.068 8.654,8.105 8.672,8.127 l 0,0 -1.076,1.033 1.076,-1.033 2.049,2.137 -2.932,0.379 c -13.117,1.686 -25.924,9.799 -31.426,13.749 l 0,0 c -1.84,1.315 -2.848,2.146 -2.852,2.146 l 0,0 -3.109,2.548 0.694,-3.961 0,0 z m 14.147,-30.516 c -0.164,0 -0.305,0.012 -0.426,0.035 l 0,0 c -0.26,0.027 -0.846,0.361 -1.506,1.189 l 0,0 c -0.658,0.813 -1.369,2.031 -2.053,3.5 l 0,0 c -1.369,2.939 -2.652,6.874 -3.725,10.779 l 0,0 c -1.217,4.414 -2.17,8.785 -2.773,11.758 l 0,0 c 5.357,-3.826 16.939,-11.215 29.727,-13.711 l 0,0 c -0.846,-0.83 -1.92,-1.856 -3.135,-2.979 l 0,0 c -3.033,-2.786 -6.977,-6.129 -10.465,-8.289 l 0,0 c -2.266,-1.43 -4.387,-2.285 -5.58,-2.285 l 0,0 c -0.023,10e-4 -0.045,0.003 -0.064,0.003 l 0,0 z"
           id="path3542" />
      </g>
      <g
         transform="matrix(3.1496063,0,0,3.1496063,17.716514,126.07461)"
         id="g3544">
        <circle
           style="fill:#ffffff"
           cx="211.07401"
           cy="55.908001"
           r="10.518"
           id="circle3546" />
        <path
           inkscape:connector-curvature="0"
           d="m 199.061,55.906 c 0.002,-6.635 5.377,-12.011 12.016,-12.011 l 0,0 c 6.631,0 12.01,5.376 12.01,12.011 l 0,0 c 0,6.638 -5.379,12.01 -12.01,12.012 l 0,0 c -6.639,0 -12.015,-5.376 -12.016,-12.012 l 0,0 z m 12.015,9.028 c 4.98,-0.01 9.014,-4.045 9.023,-9.027 l 0,0 c -0.01,-4.984 -4.043,-9.014 -9.023,-9.023 l 0,0 c -4.988,0.01 -9.018,4.039 -9.027,9.023 l 0,0 c 0.01,4.982 4.039,9.017 9.027,9.027 l 0,0 z"
           id="path3548" />
      </g>
      <g
         transform="matrix(3.1496063,0,0,3.1496063,17.716514,126.07461)"
         id="g3550">
        <circle
           cx="211.07401"
           cy="55.908001"
           r="2.7090001"
           id="circle3552" />
      </g>
      <g
         transform="matrix(3.1496063,0,0,3.1496063,17.716514,126.07461)"
         id="g3554">
        <path
           style="fill:#ffffff"
           inkscape:connector-curvature="0"
           d="m 121.891,120.945 c 0.996,-4.979 3.98,-9.959 5.973,-14.936 10.951,-20.908 39.824,-31.857 56.748,-12.942 3.986,4.294 6.082,9.159 7.072,14.324 -7.562,7.567 -14.389,15.82 -15.184,25.146 -1.619,19.013 10.518,42.477 8.09,59.061 -2.43,16.588 -13.35,34.389 -32.768,34.389 -7.416,0 -14.537,-2.367 -20.688,-6.117 -21.236,-25.905 -18.593,-66.985 -9.243,-98.925 z"
           id="path3556" />
        <path
           inkscape:connector-curvature="0"
           d="m 151.822,227.479 c -7.74,0 -15.117,-2.465 -21.465,-6.338 l 0,0 -0.215,-0.131 -0.164,-0.197 c -12.1,-14.768 -16.564,-34.211 -16.566,-54.02 l 0,0 c 0.002,-15.828 2.85,-31.926 7.029,-46.218 l 0,0 c 1.098,-5.313 4.127,-10.308 6.033,-15.121 l 0,0 0.027,-0.073 0.037,-0.064 c 7.281,-13.855 22.018,-23.459 36.553,-23.488 l 0,0 c 8.162,-0.014 16.273,3.119 22.613,10.223 l 0,0 c 4.197,4.516 6.418,9.684 7.447,15.061 l 0,0 0.148,0.773 -0.561,0.563 c -7.523,7.499 -14.053,15.565 -14.754,24.214 l 0,0 c -0.098,1.15 -0.145,2.322 -0.141,3.512 l 0,0 c -0.051,16.051 8.504,35.193 8.561,50.707 l 0,0 c -0.002,1.688 -0.107,3.334 -0.34,4.936 l 0,0 c -1.252,8.529 -4.662,17.359 -10.344,24.152 l 0,0 c -5.658,6.783 -13.701,11.51 -23.867,11.51 l 0,0 c -0.009,-10e-4 -0.019,-10e-4 -0.031,-10e-4 l 0,0 z m 0,-2.987 c 9.236,-0.012 16.352,-4.182 21.609,-10.439 l 0,0 c 5.242,-6.25 8.504,-14.613 9.68,-22.666 l 0,0 c 0.209,-1.439 0.307,-2.941 0.305,-4.506 l 0,0 c 0.055,-14.502 -8.512,-33.732 -8.562,-50.707 l 0,0 c 0.006,-1.268 0.051,-2.522 0.16,-3.764 l 0,0 c 0.861,-9.754 7.664,-18.02 15.049,-25.504 l 0,0 c -1.01,-4.662 -2.965,-8.963 -6.564,-12.844 l 0,0 c -5.826,-6.492 -12.988,-9.237 -20.406,-9.249 l 0,0 c -13.174,-0.03 -27.125,8.946 -33.875,21.83 l 0,0 c -2.064,5.097 -4.965,10.003 -5.863,14.591 l 0,0 -0.014,0.07 -0.02,0.057 c -4.117,14.074 -6.924,29.943 -6.92,45.432 l 0,0 c -0.004,19.291 4.348,37.934 15.729,51.93 l 0,0 c 5.901,3.556 12.682,5.769 19.692,5.769 l 0,0 z"
           id="path3558" />
      </g>
      <g
         transform="matrix(3.1496063,0,0,3.1496063,17.716514,126.07461)"
         id="g3560">
        <path
           inkscape:connector-curvature="0"
           d="m 124.314,36.66 c 23.461,-31.958 58.254,-11.326 58.254,-11.326 27.914,17.799 36.002,46.925 29.127,60.277 -3.504,6.802 -12.152,13.92 -20.012,21.78 -0.99,-5.165 -3.086,-10.03 -7.072,-14.324 -16.924,-18.915 -45.797,-7.966 -56.748,12.942 -1.992,4.977 -4.977,9.956 -5.973,14.936 -9.35,31.939 -11.992,73.02 9.244,98.924 -9.951,-6.074 -17.363,-15.783 -19.361,-25.033 C 108.535,179.869 100.848,68.619 124.314,36.66 Z"
           id="path3562" />
        <path
           inkscape:connector-curvature="0"
           d="m 110.312,195.152 c -1.51,-7.037 -3.854,-33.334 -3.863,-63.294 l 0,0 c 0,-18.184 0.873,-37.659 3.373,-54.841 l 0,0 c 2.514,-17.189 6.582,-32.074 13.289,-41.242 l 0,0 c 10.488,-14.334 23.486,-18.518 34.564,-18.488 l 0,0 c 14.312,0.017 25.529,6.702 25.695,6.786 l 0,0 c 22.119,14.128 32.109,35.203 32.133,50.624 l 0,0 c -0.004,4.401 -0.82,8.365 -2.482,11.596 l 0,0 c -3.787,7.266 -12.492,14.33 -20.281,22.152 l 0,0 -1.992,1.994 -0.529,-2.766 c -0.959,-4.959 -2.928,-9.52 -6.721,-13.611 l 0,0 C 177.676,87.57 170.51,84.825 163.092,84.813 l 0,0 c -13.174,-0.03 -27.125,8.946 -33.875,21.83 l 0,0 c -2.064,5.094 -4.963,10.003 -5.863,14.591 l 0,0 -0.014,0.07 -0.02,0.057 c -4.117,14.076 -6.924,29.943 -6.924,45.432 l 0,0 c 0,19.383 4.391,38.105 15.893,52.127 l 0,0 -1.932,2.221 c -10.261,-6.282 -17.91,-16.217 -20.045,-25.989 l 0,0 z m 2.467,-117.704 c -2.469,16.966 -3.344,36.325 -3.344,54.41 l 0,0 c -0.01,29.731 2.385,56.183 3.797,62.661 l 0,0 c 1.342,6.289 5.443,12.969 11.238,18.406 l 0,0 c -7.975,-13.48 -11.057,-29.682 -11.059,-46.133 l 0,0 c 0.002,-15.825 2.85,-31.924 7.029,-46.218 l 0,0 c 1.098,-5.315 4.127,-10.308 6.035,-15.121 l 0,0 0.027,-0.073 0.033,-0.064 c 7.283,-13.857 22.02,-23.459 36.555,-23.492 l 0,0 c 8.162,-0.01 16.273,3.125 22.613,10.225 l 0,0 c 3.504,3.768 5.629,7.989 6.834,12.406 l 0,0 c 7.354,-7.156 14.861,-13.697 17.826,-19.527 l 0,0 c 1.389,-2.692 2.15,-6.201 2.148,-10.23 l 0,0 c 0.021,-14.178 -9.422,-34.53 -30.709,-48.08 l 0,0 c -0.002,0.002 -0.629,-0.375 -1.838,-0.969 l 0,0 c -1.211,-0.594 -2.979,-1.391 -5.166,-2.189 l 0,0 c -4.379,-1.598 -10.443,-3.187 -17.125,-3.187 l 0,0 c -10.367,0.03 -22.168,3.708 -32.158,17.272 l 0,0 c -6.167,8.361 -10.286,22.942 -12.736,39.903 l 0,0 z"
           id="path3564" />
      </g>
      <g
         transform="matrix(3.1496063,0,0,3.1496063,17.716514,126.07461)"
         id="g3566">
        <circle
           style="fill:#ffffff"
           cx="147.371"
           cy="46.556"
           r="13.35"
           id="circle3568" />
        <path
           inkscape:connector-curvature="0"
           d="m 132.531,46.556 c 0,-8.198 6.643,-14.841 14.842,-14.843 l 0,0 c 8.195,0.002 14.84,6.645 14.844,14.843 l 0,0 c -0.004,8.2 -6.648,14.843 -14.844,14.843 l 0,0 c -8.199,-10e-4 -14.842,-6.643 -14.842,-14.843 l 0,0 z m 14.842,11.856 c 6.547,-0.01 11.842,-5.312 11.854,-11.856 l 0,0 C 159.215,40.008 153.92,34.711 147.373,34.7 l 0,0 c -6.549,0.012 -11.846,5.309 -11.857,11.856 l 0,0 c 0.011,6.545 5.308,11.846 11.857,11.856 l 0,0 z"
           id="path3570" />
      </g>
      <g
         transform="matrix(3.1496063,0,0,3.1496063,17.716514,126.07461)"
         id="g3572">
        <circle
           cx="147.37199"
           cy="46.556"
           r="3.438"
           id="circle3574" />
      </g>
      <g
         style="fill:#ffffff"
         transform="matrix(3.1496063,0,0,3.1496063,17.716514,126.07461)"
         id="g3576">
        <path
           style="fill:#ffffff"
           inkscape:connector-curvature="0"
           d="m 197.535,87.229 c 0,0 -4.449,-4.047 -11.326,-6.877 -6.877,-2.834 -18.205,-4.047 -18.205,-4.047 0,0 -3.238,-1.213 -3.238,-6.473 0,-5.259 12.543,-6.877 21.443,-3.234 8.898,3.638 16.182,15.773 11.326,20.631 z"
           id="path3578" />
      </g>
      <g
         style="fill:#000000"
         transform="matrix(3.1496063,0,0,3.1496063,17.716514,126.07461)"
         id="g3580">
        <polygon
           style="fill:#000000"
           points="202.414,223.746 179.111,235.582 183.9,226.535 168.58,215.393 171.086,210.381 186.625,221.742 195.312,211.633 191.133,222.074 199.486,217.898 194.893,224.58 "
           id="polygon3582" />
      </g>
    </g>
    <text
       xml:space="preserve"
       style="font-style:normal;font-weight:bold;font-size:40px;line-height:125%;font-family:Sans;-inkscape-font-specification:'Sans Bold';letter-spacing:0px;word-spacing:0px;fill:#000000;fill-opacity:1;stroke:none;stroke-width:1px;stroke-linecap:butt;stroke-linejoin:miter;stroke-opacity:1"
       x="13.111697"
       y="138.07649"
       id="text3769"
       sodipodi:linespacing="125%"><tspan
         sodipodi:role="line"
         id="tspan3771"
         x="13.111697"
         y="138.07649"
         style="font-size:50px">Oficina de Software Libre</tspan></text>
    <text
       xml:space="preserve"
       style="font-style:italic;font-variant:normal;font-weight:normal;font-stretch:normal;font-size:55px;line-height:125%;font-family:Garamond;-inkscape-font-specification:'Garamond Italic';letter-spacing:0px;word-spacing:0px;fill:#000000;fill-opacity:1;stroke:none;stroke-width:1px;stroke-linecap:butt;stroke-linejoin:miter;stroke-opacity:1"
       x="0.53949016"
       y="980.93365"
       id="text3773"
       sodipodi:linespacing="125%"><tspan
         sodipodi:role="line"
         id="tspan3775"
         x="0.53949016"
         y="980.93365"
         style="font-style:normal;font-variant:normal;font-weight:normal;font-stretch:normal;font-size:77.5px;font-family:Garamond;-inkscape-font-specification:Garamond">Universidad de Granada</tspan></text>
    <flowRoot
       xml:space="preserve"
       id="flowRoot3777"
       style="fill:black;stroke:none;stroke-opacity:1;stroke-width:1px;stroke-linejoin:miter;stroke-linecap:butt;fill-opacity:1;font-family:Sans;font-style:normal;font-weight:bold;font-size:40px;line-height:125%;letter-spacing:0px;word-spacing:0px;-inkscape-font-specification:Sans Bold"><flowRegion
         id="flowRegion3779"><rect
           id="rect3781"
           width="1137.1428"
           height="1380"
           x="-257.14285"
           y="-116.20922" /></flowRegion><flowPara
         id="flowPara3783" /></flowRoot>    <flowRoot
       xml:space="preserve"
       id="flowRoot3390"
       style="fill:black;stroke:none;stroke-opacity:1;stroke-width:1px;stroke-linejoin:miter;stroke-linecap:butt;fill-opacity:1;font-family:Sans;font-style:normal;font-weight:bold;font-size:40px;line-height:125%;letter-spacing:0px;word-spacing:0px;-inkscape-font-specification:Sans Bold"><flowRegion
         id="flowRegion3392"><rect
           id="rect3394"
           width="1214.2858"
           height="1425.7142"
           x="-200"
           y="-233.35208" /></flowRegion><flowPara
         id="flowPara3396"></flowPara></flowRoot>  </g>
</svg>
