<?xml version="1.0" encoding="UTF-8" standalone="no"?>
<!-- Created with Inkscape (http://www.inkscape.org/) -->

<svg
   xmlns:dc="http://purl.org/dc/elements/1.1/"
   xmlns:cc="http://creativecommons.org/ns#"
   xmlns:rdf="http://www.w3.org/1999/02/22-rdf-syntax-ns#"
   xmlns:svg="http://www.w3.org/2000/svg"
   xmlns="http://www.w3.org/2000/svg"
   xmlns:sodipodi="http://sodipodi.sourceforge.net/DTD/sodipodi-0.dtd"
   xmlns:inkscape="http://www.inkscape.org/namespaces/inkscape"
   width="2834.6455"
   height="6377.9526"
   id="svg2"
   version="1.1"
   inkscape:version="0.48.4 r9939"
   sodipodi:docname="Documento nuevo 1">
  <defs
     id="defs4" />
  <sodipodi:namedview
     id="base"
     pagecolor="#ffffff"
     bordercolor="#666666"
     borderopacity="1.0"
     inkscape:pageopacity="0.0"
     inkscape:pageshadow="2"
     inkscape:zoom="0.12"
     inkscape:cx="824.39195"
     inkscape:cy="2647.3734"
     inkscape:document-units="px"
     inkscape:current-layer="layer1"
     showgrid="false"
     units="cm"
     inkscape:window-width="1366"
     inkscape:window-height="709"
     inkscape:window-x="0"
     inkscape:window-y="27"
     inkscape:window-maximized="1" />
  <metadata
     id="metadata7">
    <rdf:RDF>
      <cc:Work
         rdf:about="">
        <dc:format>image/svg+xml</dc:format>
        <dc:type
           rdf:resource="http://purl.org/dc/dcmitype/StillImage" />
        <dc:title></dc:title>
      </cc:Work>
    </rdf:RDF>
  </metadata>
  <g
     inkscape:label="Capa 1"
     inkscape:groupmode="layer"
     id="layer1"
     transform="translate(0,5325.5917)">
    <text
       xml:space="preserve"
       style="font-size:144px;font-style:normal;font-weight:normal;line-height:125%;letter-spacing:0px;word-spacing:0px;fill:#000000;fill-opacity:1;stroke:none;font-family:Sans"
       x="359.81937"
       y="5964.8267"
       id="text2989"
       sodipodi:linespacing="125%"
       transform="translate(0,-5325.5917)"><tspan
         sodipodi:role="line"
         id="tspan2991"
         x="359.81937"
         y="5964.8267">Universidad de Granada</tspan></text>
    <path
       sodipodi:type="arc"
       id="path2995"
       sodipodi:cx="2618.6855"
       sodipodi:cy="5958.1636"
       sodipodi:rx="206.56297"
       sodipodi:ry="206.56297"
       d="m 2825.2485,5958.1636 a 206.56297,206.56297 0 1 1 -413.1259,0 206.56297,206.56297 0 1 1 413.1259,0 z"
       transform="translate(0,-5325.5917)" />
    <text
       xml:space="preserve"
       style="font-size:40px;font-style:normal;font-weight:normal;line-height:125%;letter-spacing:0px;word-spacing:0px;fill:#000000;fill-opacity:1;stroke:none;font-family:Sans"
       x="306.51279"
       y="5205.208"
       id="text3002"
       sodipodi:linespacing="125%"
       transform="translate(0,-5325.5917)"><tspan
         sodipodi:role="line"
         id="tspan3004"
         x="306.51279"
         y="5205.208"
         style="font-size:144px">http://www.osl.ugr.es</tspan></text>
    <flowRoot
       xml:space="preserve"
       id="flowRoot3008"
       style="fill:black;stroke:none;stroke-opacity:1;stroke-width:1px;stroke-linejoin:miter;stroke-linecap:butt;fill-opacity:1;font-family:Sans;font-style:normal;font-weight:normal;font-size:40px;line-height:125%;letter-spacing:0px;word-spacing:0px"><flowRegion
         id="flowRegion3010"><rect
           id="rect3012"
           width="13.326644"
           height="79.959862"
           x="1372.6443"
           y="4592.1826" /></flowRegion><flowPara
         id="flowPara3014"></flowPara></flowRoot>    <g
       id="g3331"
       transform="matrix(1.5926285,0,0,1.5926285,-1588.3449,-3113.2748)">
      <g
         id="g3426"
         style="display:inline"
         transform="matrix(5.7088123,0,0,5.7088123,-306.557,-1726.0003)">
        <path
           style="fill:#f15a24"
           inkscape:connector-curvature="0"
           d="m 263.572,115.705 v 6.328 c -1.852,-1.078 -3.715,-1.886 -5.59,-2.426 -1.875,-0.539 -3.785,-0.809 -5.73,-0.809 -2.93,0 -5.115,0.475 -6.557,1.424 -1.442,0.949 -2.162,2.396 -2.162,4.342 0,1.758 0.539,3.071 1.617,3.938 1.078,0.867 3.762,1.711 8.051,2.531 l 2.602,0.492 c 3.211,0.61 5.643,1.828 7.295,3.656 1.652,1.828 2.479,4.207 2.479,7.137 0,3.891 -1.383,6.932 -4.148,9.123 -2.766,2.192 -6.609,3.287 -11.531,3.287 -1.946,0 -3.985,-0.206 -6.117,-0.615 -2.133,-0.41 -4.442,-1.025 -6.926,-1.846 v -6.68 c 2.414,1.243 4.723,2.174 6.926,2.795 2.203,0.621 4.289,0.932 6.258,0.932 2.859,0 5.074,-0.58 6.645,-1.74 1.57,-1.16 2.355,-2.783 2.355,-4.869 0,-3 -2.871,-5.074 -8.613,-6.223 l -0.281,-0.07 -2.426,-0.492 c -3.727,-0.726 -6.446,-1.951 -8.156,-3.674 -1.711,-1.723 -2.566,-4.072 -2.566,-7.049 0,-3.773 1.277,-6.685 3.832,-8.736 2.554,-2.051 6.199,-3.076 10.934,-3.076 2.109,0 4.136,0.193 6.082,0.58 1.942,0.387 3.852,0.967 5.727,1.74 z"
           id="path3428" />
        <path
           style="fill:#f15a24"
           inkscape:connector-curvature="0"
           d="m 285.729,113.385 c 5.461,0 9.638,1.77 12.533,5.309 2.895,3.539 4.342,8.661 4.342,15.363 0,6.727 -1.441,11.854 -4.324,15.381 -2.883,3.528 -7.066,5.291 -12.551,5.291 -5.461,0 -9.633,-1.763 -12.516,-5.291 -2.883,-3.527 -4.324,-8.654 -4.324,-15.381 0,-6.703 1.441,-11.824 4.324,-15.363 2.883,-3.539 7.055,-5.309 12.516,-5.309 z m 0,5.484 c -3.282,0 -5.766,1.278 -7.453,3.832 -1.688,2.555 -2.531,6.34 -2.531,11.355 0,4.992 0.844,8.771 2.531,11.338 1.687,2.567 4.171,3.85 7.453,3.85 3.305,0 5.801,-1.283 7.488,-3.85 1.687,-2.567 2.531,-6.346 2.531,-11.338 0,-5.015 -0.844,-8.801 -2.531,-11.355 -1.687,-2.554 -4.183,-3.832 -7.488,-3.832 z"
           id="path3430" />
        <path
           style="fill:#f15a24"
           inkscape:connector-curvature="0"
           d="m 333.992,99.006 v 5.379 h -7.348 c -2.32,0 -3.932,0.475 -4.834,1.424 -0.902,0.949 -1.354,2.631 -1.354,5.045 v 3.48 h 13.535 v 5.027 h -13.535 v 34.348 h -6.469 v -34.348 h -10.512 v -5.027 h 10.512 v -2.742 c 0,-4.312 0.99,-7.488 2.971,-9.527 1.98,-2.039 5.068,-3.059 9.264,-3.059 h 7.77 z"
           id="path3432" />
        <path
           style="fill:#f15a24"
           inkscape:connector-curvature="0"
           d="m 354.354,103.154 v 11.18 h 14.695 v 5.027 h -14.695 v 21.375 c 0,2.906 0.55,4.934 1.652,6.082 1.102,1.148 3.023,1.723 5.766,1.723 h 7.277 v 5.168 h -7.91 c -4.852,0 -8.274,-0.972 -10.266,-2.918 -1.992,-1.945 -2.988,-5.296 -2.988,-10.055 v -21.375 h -10.512 v -5.027 h 10.512 v -11.18 h 6.469 z"
           id="path3434" />
        <path
           style="fill:#f15a24"
           inkscape:connector-curvature="0"
           d="m 372.516,114.334 h 6.398 l 6.855,31.816 5.625,-20.32 h 5.52 l 5.695,20.32 6.855,-31.816 h 6.398 l -9.211,39.375 h -6.188 l -6.293,-21.586 -6.258,21.586 h -6.188 l -9.208,-39.375 z"
           id="path3436" />
        <path
           style="fill:#f15a24"
           inkscape:connector-curvature="0"
           d="m 449.494,131.244 v 22.465 h -6.504 v -5.836 c -1.384,2.344 -3.124,4.073 -5.221,5.186 -2.098,1.113 -4.646,1.67 -7.646,1.67 -4.008,0 -7.207,-1.13 -9.598,-3.393 -2.391,-2.262 -3.586,-5.291 -3.586,-9.088 0,-4.382 1.471,-7.711 4.412,-9.984 2.94,-2.273 7.26,-3.41 12.955,-3.41 h 8.684 v -1.02 c -0.023,-3.141 -0.821,-5.419 -2.391,-6.838 -1.57,-1.418 -4.078,-2.127 -7.523,-2.127 -2.203,0 -4.43,0.316 -6.68,0.949 -2.25,0.633 -4.442,1.559 -6.574,2.777 v -6.469 c 2.391,-0.914 4.681,-1.6 6.873,-2.057 2.191,-0.457 4.318,-0.686 6.381,-0.686 3.257,0 6.041,0.48 8.35,1.441 2.308,0.961 4.178,2.403 5.607,4.324 0.891,1.172 1.523,2.619 1.898,4.342 0.375,1.725 0.563,4.309 0.563,7.754 z m -12.551,2.672 h -2.145 c -3.774,0 -6.615,0.663 -8.525,1.986 -1.911,1.324 -2.865,3.299 -2.865,5.924 0,2.368 0.715,4.207 2.145,5.52 1.429,1.313 3.41,1.969 5.941,1.969 3.562,0 6.363,-1.236 8.402,-3.709 2.039,-2.473 3.07,-5.889 3.094,-10.248 v -1.441 h -6.047 z"
           id="path3438" />
        <path
           style="fill:#f15a24"
           inkscape:connector-curvature="0"
           d="m 481.816,122.455 c -1.384,-1.078 -2.79,-1.863 -4.219,-2.355 -1.43,-0.492 -3.001,-0.738 -4.711,-0.738 -4.031,0 -7.114,1.266 -9.246,3.797 -2.133,2.531 -3.199,6.188 -3.199,10.969 v 19.582 h -6.504 v -39.375 h 6.504 v 7.699 c 1.077,-2.789 2.736,-4.927 4.975,-6.416 2.237,-1.488 4.892,-2.232 7.963,-2.232 1.594,0 3.081,0.199 4.465,0.598 1.383,0.399 2.707,1.02 3.973,1.863 v 6.608 z"
           id="path3440" />
        <path
           style="fill:#f15a24"
           inkscape:connector-curvature="0"
           d="m 518.252,132.404 v 3.164 h -28.02 v 0.211 c 0,4.289 1.119,7.606 3.357,9.949 2.238,2.344 5.396,3.516 9.475,3.516 2.062,0 4.219,-0.328 6.469,-0.984 2.25,-0.656 4.652,-1.652 7.207,-2.988 v 6.434 c -2.461,1.008 -4.834,1.764 -7.119,2.268 -2.285,0.504 -4.494,0.756 -6.627,0.756 -6.117,0 -10.898,-1.833 -14.344,-5.502 -3.445,-3.668 -5.168,-8.724 -5.168,-15.17 0,-6.281 1.688,-11.297 5.062,-15.047 3.375,-3.75 7.875,-5.625 13.5,-5.625 5.016,0 8.971,1.7 11.865,5.098 2.896,3.397 4.343,8.037 4.343,13.92 z m -6.469,-1.898 c -0.094,-3.797 -0.99,-6.685 -2.689,-8.666 -1.699,-1.98 -4.143,-2.971 -7.33,-2.971 -3.117,0 -5.684,1.032 -7.699,3.094 -2.016,2.062 -3.211,4.922 -3.586,8.578 l 21.304,-0.035 z"
           id="path3442" />
      </g>
      <g
         id="g3444"
         style="display:inline"
         transform="matrix(5.7088123,0,0,5.7088123,-306.557,-1726.0003)">
        <path
           style="fill:#f15a24"
           inkscape:connector-curvature="0"
           d="m 251.83,200.5 c 0,2.906 0.533,5.098 1.6,6.574 1.066,1.477 2.642,2.215 4.729,2.215 h 7.559 v 5.484 h -8.191 c -3.867,0 -6.861,-1.242 -8.982,-3.727 -2.122,-2.484 -3.182,-6 -3.182,-10.547 V 164.745 H 234.99 v -5.062 h 16.84 V 200.5 z"
           id="path3446" />
        <path
           style="fill:#f15a24"
           inkscape:connector-curvature="0"
           d="m 274.513,175.398 h 16.559 v 34.348 h 12.832 v 5.027 h -32.133 v -5.027 h 12.832 v -29.32 h -10.09 v -5.028 z m 10.09,-15.328 h 6.469 v 8.191 h -6.469 v -8.191 z"
           id="path3448" />
        <path
           style="fill:#f15a24"
           inkscape:connector-curvature="0"
           d="m 314.915,180.426 c 1.031,-1.921 2.455,-3.398 4.271,-4.43 1.816,-1.031 3.92,-1.547 6.311,-1.547 4.734,0 8.46,1.823 11.18,5.467 2.719,3.645 4.079,8.666 4.079,15.064 0,6.492 -1.366,11.584 -4.096,15.275 -2.73,3.691 -6.475,5.537 -11.232,5.537 -2.344,0 -4.412,-0.51 -6.205,-1.529 -1.793,-1.019 -3.229,-2.501 -4.307,-4.447 v 4.957 h -6.469 V 160.07 h 6.469 v 20.356 z m 19.019,14.695 c 0,-5.015 -0.797,-8.801 -2.391,-11.355 -1.594,-2.554 -3.95,-3.832 -7.066,-3.832 -3.141,0 -5.52,1.283 -7.137,3.85 -1.617,2.567 -2.426,6.346 -2.426,11.338 0,4.969 0.809,8.742 2.426,11.32 1.617,2.579 3.996,3.867 7.137,3.867 3.117,0 5.472,-1.277 7.066,-3.832 1.594,-2.555 2.391,-6.34 2.391,-11.356 z"
           id="path3450" />
        <path
           style="fill:#f15a24"
           inkscape:connector-curvature="0"
           d="m 374.813,183.52 c -1.383,-1.078 -2.789,-1.863 -4.219,-2.355 -1.43,-0.492 -3,-0.738 -4.711,-0.738 -4.031,0 -7.113,1.266 -9.246,3.797 -2.133,2.531 -3.199,6.188 -3.199,10.969 v 19.582 h -6.504 V 175.4 h 6.504 v 7.699 c 1.078,-2.789 2.736,-4.927 4.975,-6.416 2.238,-1.488 4.893,-2.232 7.963,-2.232 1.594,0 3.082,0.199 4.465,0.598 1.383,0.399 2.707,1.02 3.973,1.863 v 6.608 z"
           id="path3452" />
        <path
           style="fill:#f15a24"
           inkscape:connector-curvature="0"
           d="m 411.249,193.469 v 3.164 h -28.02 v 0.211 c 0,4.289 1.119,7.606 3.357,9.949 2.238,2.344 5.396,3.516 9.475,3.516 2.062,0 4.219,-0.328 6.469,-0.984 2.25,-0.656 4.652,-1.652 7.207,-2.988 v 6.434 c -2.461,1.008 -4.834,1.764 -7.119,2.268 -2.285,0.504 -4.494,0.756 -6.627,0.756 -6.117,0 -10.898,-1.833 -14.344,-5.502 -3.445,-3.668 -5.168,-8.724 -5.168,-15.17 0,-6.281 1.688,-11.297 5.062,-15.047 3.375,-3.75 7.875,-5.625 13.5,-5.625 5.016,0 8.971,1.7 11.865,5.098 2.896,3.396 4.343,8.037 4.343,13.92 z m -6.469,-1.899 c -0.094,-3.797 -0.99,-6.685 -2.689,-8.666 -1.699,-1.98 -4.143,-2.971 -7.33,-2.971 -3.117,0 -5.684,1.032 -7.699,3.094 -2.016,2.062 -3.211,4.922 -3.586,8.578 l 21.304,-0.035 z"
           id="path3454" />
      </g>
      <path
         style="fill:#0000ff;fill-opacity:1;display:inline"
         inkscape:connector-curvature="0"
         d="m 1167.424,-1309.9133 c 15.585,0 27.51,5.052 35.777,15.151 8.266,10.099 12.394,24.719 12.394,43.855 0,19.199 -4.116,33.836 -12.343,43.901 -8.226,10.065 -20.169,15.106 -35.823,15.106 -15.585,0 -27.493,-5.036 -35.725,-15.106 -8.232,-10.07 -12.343,-24.702 -12.343,-43.901 0,-19.136 4.116,-33.75 12.343,-43.855 8.226,-10.104 20.129,-15.151 35.72,-15.151 z m 0,15.654 c -9.368,0 -16.459,3.648 -21.277,10.938 -4.818,7.29 -7.227,18.097 -7.227,32.414 0,14.25 2.409,25.039 7.227,32.364 4.818,7.324 11.909,10.989 21.277,10.989 9.431,0 16.555,-3.665 21.374,-10.989 4.818,-7.325 7.227,-18.114 7.227,-32.364 0,-14.317 -2.409,-25.118 -7.227,-32.414 -4.819,-7.296 -11.943,-10.938 -21.374,-10.938 z"
         id="path3458" />
      <path
         style="fill:#0000ff;fill-opacity:1;display:inline"
         inkscape:connector-curvature="0"
         d="m 1336.011,-1350.9543 v 15.351 h -20.975 c -6.622,0 -11.223,1.353 -13.798,4.065 -2.574,2.712 -3.865,7.507 -3.865,14.398 v 9.933 h 38.638 v 14.352 h -38.638 v 98.043 h -18.462 v -98.037 h -30.005 v -14.352 h 30.005 v -7.827 c 0,-12.308 2.826,-21.374 8.478,-27.197 5.651,-5.823 14.466,-8.729 26.443,-8.729 h 22.179 z"
         id="path3460" />
      <path
         style="fill:#0000ff;fill-opacity:1;display:inline"
         inkscape:connector-curvature="0"
         d="m 1378.758,-1307.2013 h 47.264 v 98.043 h 36.627 v 14.352 h -91.718 v -14.352 h 36.628 v -83.691 h -28.801 v -14.352 z m 28.801,-43.753 h 18.463 v 23.384 h -18.463 v -23.384 z"
         id="path3462" />
      <path
         style="fill:#0000ff;fill-opacity:1;display:inline"
         inkscape:connector-curvature="0"
         d="m 1583.276,-1200.5323 c -4.949,2.877 -10.053,5.035 -15.305,6.474 -5.252,1.438 -10.618,2.158 -16.104,2.158 -17.395,0 -30.994,-5.218 -40.796,-15.654 -9.802,-10.436 -14.7,-24.885 -14.7,-43.353 0,-18.468 4.898,-32.917 14.7,-43.352 9.802,-10.436 23.401,-15.654 40.796,-15.654 5.417,0 10.704,0.7 15.853,2.107 5.149,1.404 10.339,3.579 15.556,6.525 v 19.37 c -4.881,-4.35 -9.784,-7.49 -14.7,-9.431 -4.915,-1.941 -10.487,-2.912 -16.709,-2.912 -11.572,0 -20.472,3.745 -26.695,11.241 -6.222,7.496 -9.334,18.2 -9.334,32.112 0,13.85 3.129,24.537 9.386,32.061 6.256,7.524 15.134,11.292 26.643,11.292 6.422,0 12.176,-0.99 17.257,-2.963 5.081,-1.975 9.802,-5.035 14.152,-9.18 v 19.159 z"
         id="path3464" />
      <path
         style="fill:#0000ff;fill-opacity:1;display:inline"
         inkscape:connector-curvature="0"
         d="m 1626.224,-1307.2013 h 47.269 v 98.043 h 36.628 v 14.352 h -91.724 v -14.352 h 36.634 v -83.691 h -28.801 v -14.352 z m 28.801,-43.753 h 18.462 v 23.384 h -18.462 v -23.384 z"
         id="path3466" />
      <path
         style="fill:#0000ff;fill-opacity:1;display:inline"
         inkscape:connector-curvature="0"
         d="m 1829.737,-1264.4543 v 69.642 h -18.565 v -69.642 c 0,-10.104 -1.775,-17.526 -5.32,-22.275 -3.546,-4.75 -9.1,-7.125 -16.659,-7.125 -8.631,0 -15.276,3.06 -19.923,9.18 -4.647,6.12 -6.971,14.9 -6.971,26.34 v 63.522 h -18.462 v -112.389 h 18.462 v 16.858 c 3.277,-6.423 7.73,-11.292 13.347,-14.603 5.618,-3.311 12.274,-4.967 19.97,-4.967 11.44,0 19.981,3.762 25.632,11.292 5.652,7.53 8.489,18.913 8.489,34.167 z"
         id="path3468" />
      <path
         style="fill:#0000ff;fill-opacity:1;display:inline"
         inkscape:connector-curvature="0"
         d="m 1954.269,-1258.9333 v 64.121 h -18.565 v -16.658 c -3.945,6.691 -8.917,11.623 -14.905,14.803 -5.989,3.18 -13.256,4.767 -21.82,4.767 -11.44,0 -20.574,-3.226 -27.396,-9.683 -6.822,-6.456 -10.236,-15.105 -10.236,-25.94 0,-12.508 4.19,-22.008 12.588,-28.499 8.398,-6.491 20.729,-9.733 36.987,-9.733 h 24.788 v -2.912 c -0.1,-8.963 -2.341,-15.471 -6.822,-19.518 -4.481,-4.048 -11.64,-6.069 -21.477,-6.069 -6.291,0 -12.645,0.9 -19.067,2.712 -6.422,1.81 -12.679,4.447 -18.765,7.93 v -18.463 c 6.822,-2.609 13.359,-4.567 19.616,-5.868 6.256,-1.302 12.331,-1.959 18.216,-1.959 9.3,0 17.241,1.371 23.829,4.117 6.588,2.745 11.931,6.856 16.013,12.342 2.541,3.345 4.35,7.479 5.418,12.394 1.067,4.915 1.598,12.279 1.598,22.116 z m -35.822,7.627 h -6.12 c -10.773,0 -18.891,1.889 -24.343,5.669 -5.452,3.779 -8.175,9.413 -8.175,16.909 0,6.759 2.038,12.011 6.12,15.756 4.082,3.745 9.734,5.618 16.961,5.618 10.167,0 18.165,-3.528 23.983,-10.584 5.817,-7.056 8.763,-16.807 8.831,-29.252 v -4.116 h -17.257 z"
         id="path3470" />
      <path
         style="fill:#0000ff;fill-opacity:1;display:inline"
         inkscape:connector-curvature="0"
         d="m 2181.566,-1292.8493 v -58.105 h 18.462 v 156.148 h -18.462 v -14.152 c -3.077,5.554 -7.182,9.785 -12.297,12.696 -5.115,2.912 -11.018,4.367 -17.709,4.367 -13.581,0 -24.274,-5.269 -32.066,-15.807 -7.793,-10.539 -11.686,-25.073 -11.686,-43.604 0,-18.263 3.916,-32.598 11.743,-42.999 7.827,-10.402 18.496,-15.602 32.009,-15.602 6.759,0 12.714,1.455 17.863,4.367 5.149,2.911 9.197,7.136 12.143,12.691 z m -54.291,41.942 c 0,14.318 2.272,25.119 6.822,32.415 4.55,7.296 11.275,10.938 20.169,10.938 8.894,0 15.665,-3.682 20.318,-11.041 4.652,-7.358 6.982,-18.131 6.982,-32.312 0,-14.249 -2.33,-25.039 -6.982,-32.363 -4.653,-7.324 -11.418,-10.989 -20.318,-10.989 -8.9,0 -15.619,3.648 -20.169,10.938 -4.55,7.29 -6.822,18.097 -6.822,32.414 z"
         id="path3472" />
      <path
         style="fill:#0000ff;fill-opacity:1;display:inline"
         inkscape:connector-curvature="0"
         d="m 2330.788,-1255.6223 v 9.031 h -79.98 v 0.6 c 0,12.246 3.191,21.711 9.579,28.401 6.388,6.691 15.408,10.037 27.049,10.037 5.885,0 12.04,-0.94 18.462,-2.809 6.422,-1.873 13.279,-4.716 20.574,-8.529 v 18.365 c -7.021,2.877 -13.803,5.035 -20.329,6.474 -6.525,1.439 -12.822,2.158 -18.907,2.158 -17.463,0 -31.108,-5.235 -40.944,-15.705 -9.836,-10.47 -14.751,-24.902 -14.751,-43.301 0,-17.932 4.818,-32.244 14.449,-42.948 9.63,-10.704 22.481,-16.053 38.534,-16.053 14.318,0 25.598,4.852 33.865,14.552 8.266,9.699 12.399,22.938 12.399,39.727 z m -18.468,-5.418 c -0.27,-10.835 -2.831,-19.084 -7.684,-24.736 -4.852,-5.652 -11.817,-8.478 -20.917,-8.478 -8.9,0 -16.224,2.946 -21.979,8.832 -5.754,5.886 -9.162,14.049 -10.236,24.485 l 60.816,-0.1 z"
         id="path3474" />
    </g>
    <g
       id="Capa_2"
       transform="matrix(11.560664,0,0,11.560664,97.609663,-3582.7505)"
       style="display:inline">
      <g
         id="g3480">
        <g
           id="g3482">
          <circle
             id="circle3484"
             r="112.5"
             cy="127.182"
             cx="112.5"
             d="m 225,127.182 c 0,62.13203 -50.36797,112.5 -112.5,112.5 C 50.367966,239.682 0,189.31403 0,127.182 0,65.049965 50.367966,14.681999 112.5,14.681999 c 62.13203,0 112.5,50.367966 112.5,112.500001 z"
             sodipodi:cx="112.5"
             sodipodi:cy="127.182"
             sodipodi:rx="112.5"
             sodipodi:ry="112.5"
             style="fill:#a9b6c9" />
        </g>
        <g
           id="g3486">
          <g
             id="g3488">
            <g
               id="g3490">
              <path
                 id="path3492"
                 d="m 12.631,161.426 c 0,0 16.457,-17.162 23.041,-15.986 6.584,1.176 11.99,32.209 11.99,32.209 0,0 -16.928,-13.872 -35.031,-16.223 z"
                 inkscape:connector-curvature="0" />
              <path
                 id="path3494"
                 d="m 46.715,178.805 c -0.004,-0.002 -1.012,-0.832 -2.848,-2.146 l 0,0 c -1.84,-1.313 -4.484,-3.097 -7.682,-4.948 l 0,0 c -6.389,-3.705 -15.004,-7.676 -23.748,-8.803 l 0,0 0.193,-1.482 1.08,1.035 -1.08,-1.035 -0.193,1.482 -2.936,-0.379 2.053,-2.137 c 0.047,-0.037 8.68,-9.084 16.209,-13.772 l 0,0 c 2.541,-1.552 4.918,-2.702 7.223,-2.73 l 0,0 c 0.312,0 0.631,0.021 0.949,0.079 l 0,0 c 1.383,0.265 2.404,1.16 3.301,2.254 l 0,0 c 0.896,1.107 1.688,2.51 2.439,4.113 l 0,0 c 1.492,3.21 2.797,7.254 3.898,11.254 l 0,0 c 2.197,7.989 3.555,15.777 3.559,15.801 l 0,0 0.691,3.963 -3.108,-2.549 0,0 z m -1.248,-4.668 C 45,171.824 44.319,168.662 43.463,165.292 l 0,0 c -1.666,-6.69 -4.156,-14.31 -6.547,-17.19 l 0,0 c -0.662,-0.83 -1.244,-1.164 -1.514,-1.193 l 0,0 c -0.117,-0.021 -0.252,-0.033 -0.416,-0.033 l 0,0 c -1.814,-0.082 -5.639,1.994 -9.236,4.775 l 0,0 c -3.645,2.758 -7.268,6.11 -9.566,8.342 l 0,0 c -0.154,0.148 -0.303,0.293 -0.445,0.434 l 0,0 c 12.786,2.495 24.366,9.882 29.728,13.71 l 0,0 z"
                 inkscape:connector-curvature="0" />
            </g>
            <g
               id="g3496">
              <circle
                 id="circle3498"
                 r="10.518"
                 cy="55.908001"
                 cx="13.926"
                 d="m 24.443999,55.908001 c 0,5.808931 -4.709069,10.518 -10.517999,10.518 -5.8089312,0 -10.518,-4.709069 -10.518,-10.518 0,-5.808931 4.7090688,-10.518 10.518,-10.518 5.80893,0 10.517999,4.709069 10.517999,10.518 z"
                 sodipodi:cx="13.926"
                 sodipodi:cy="55.908001"
                 sodipodi:rx="10.518"
                 sodipodi:ry="10.518"
                 style="fill:#ffffff" />
              <path
                 id="path3500"
                 d="m 1.914,55.908 c 0,-6.635 5.377,-12.013 12.014,-12.013 l 0,0 c 6.631,0 12.008,5.378 12.012,12.013 l 0,0 c -0.004,6.636 -5.381,12.01 -12.012,12.01 l 0,0 c -6.637,0 -12.014,-5.374 -12.014,-12.01 l 0,0 z m 2.988,0 c 0.01,4.98 4.039,9.016 9.025,9.022 l 0,0 c 4.98,-0.007 9.016,-4.042 9.023,-9.022 l 0,0 c -0.008,-4.986 -4.043,-9.016 -9.023,-9.025 l 0,0 c -4.986,0.01 -9.015,4.039 -9.025,9.025 l 0,0 z"
                 inkscape:connector-curvature="0" />
            </g>
            <g
               id="g3502">
              <circle
                 id="circle3504"
                 r="2.7090001"
                 cy="55.908001"
                 cx="13.928"
                 d="m 16.637001,55.908001 c 0,1.496139 -1.212861,2.709 -2.709001,2.709 -1.496139,0 -2.709,-1.212861 -2.709,-2.709 0,-1.49614 1.212861,-2.709 2.709,-2.709 1.49614,0 2.709001,1.21286 2.709001,2.709 z"
                 sodipodi:cx="13.928"
                 sodipodi:cy="55.908001"
                 sodipodi:rx="2.7090001"
                 sodipodi:ry="2.7090001" />
            </g>
            <g
               id="g3506">
              <path
                 id="path3508"
                 d="m 103.111,120.945 c -0.996,-4.979 -3.984,-9.959 -5.975,-14.936 C 86.188,85.102 57.314,74.152 40.391,93.067 c -3.988,4.294 -6.082,9.159 -7.074,14.324 7.561,7.567 14.391,15.82 15.186,25.146 1.617,19.013 -10.52,42.477 -8.09,59.061 2.426,16.588 13.35,34.389 32.768,34.389 7.416,0 14.537,-2.367 20.689,-6.117 21.232,-25.905 18.591,-66.985 9.241,-98.925 z"
                 inkscape:connector-curvature="0"
                 style="fill:#ffffff" />
              <path
                 id="path3510"
                 d="m 49.277,215.969 c -5.68,-6.793 -9.092,-15.623 -10.346,-24.15 l 0,0 c -0.236,-1.604 -0.336,-3.25 -0.336,-4.932 l 0,0 c 0.051,-15.518 8.609,-34.664 8.562,-50.715 l 0,0 c 0,-1.188 -0.045,-2.361 -0.143,-3.51 l 0,0 c -0.701,-8.648 -7.232,-16.715 -14.756,-24.214 l 0,0 -0.561,-0.563 0.15,-0.775 c 1.027,-5.375 3.244,-10.543 7.426,-15.037 l 0,0 C 45.63,84.948 53.74,81.815 61.908,81.829 l 0,0 c 14.529,0.029 29.268,9.633 36.549,23.488 l 0,0 0.035,0.07 0.031,0.067 c 1.906,4.813 4.936,9.808 6.035,15.121 l 0,0 c 4.174,14.292 7.023,30.39 7.025,46.218 l 0,0 c -0.002,19.811 -4.465,39.252 -16.562,54.02 l 0,0 -0.16,0.197 -0.219,0.131 c -6.35,3.873 -13.727,6.338 -21.465,6.338 l 0,0 c -0.012,0 -0.021,0 -0.033,0 l 0,0 c -10.165,0 -18.21,-4.727 -23.867,-11.51 l 0,0 z m 0.711,-83.559 c 0.107,1.241 0.154,2.496 0.154,3.762 l 0,0 c -0.047,16.977 -8.615,36.207 -8.562,50.715 l 0,0 c 0,1.559 0.096,3.061 0.309,4.496 l 0,0 c 1.174,8.057 4.434,16.42 9.68,22.67 l 0,0 c 5.258,6.258 12.375,10.428 21.611,10.439 l 0,0 c 7.01,0 13.789,-2.213 19.693,-5.77 l 0,0 c 11.381,-13.996 15.729,-32.637 15.727,-51.93 l 0,0 c 0,-15.488 -2.803,-31.357 -6.924,-45.432 l 0,0 1.436,-0.416 1.463,-0.295 -1.463,0.295 -1.436,0.416 -0.018,-0.062 -0.012,-0.065 c -0.898,-4.588 -3.801,-9.494 -5.863,-14.591 l 0,0 C 89.031,93.76 75.08,84.783 61.91,84.813 l 0,0 c -7.422,0.012 -14.586,2.757 -20.426,9.271 l 0,0 c -3.58,3.861 -5.535,8.16 -6.545,12.824 l 0,0 c 7.381,7.483 14.184,15.745 15.049,25.502 l 0,0 z"
                 inkscape:connector-curvature="0" />
            </g>
            <g
               id="g3512">
              <path
                 id="path3514"
                 d="M 100.689,36.66 C 77.225,4.702 42.434,25.334 42.434,25.334 14.52,43.133 6.432,72.259 13.309,85.611 c 3.502,6.802 12.15,13.92 20.008,21.78 0.992,-5.165 3.086,-10.03 7.074,-14.324 16.924,-18.915 45.797,-7.966 56.746,12.942 1.99,4.977 4.979,9.956 5.975,14.936 9.35,31.939 11.99,73.02 -9.242,98.924 9.947,-6.074 17.357,-15.783 19.357,-25.033 3.238,-14.967 10.925,-126.217 -12.538,-158.176 z"
                 inkscape:connector-curvature="0" />
              <path
                 id="path3516"
                 d="m 92.711,218.92 c 11.504,-14.021 15.893,-32.742 15.889,-52.127 l 0,0 c 0,-15.488 -2.801,-31.355 -6.924,-45.432 l 0,0 -0.018,-0.062 -0.012,-0.065 c -0.9,-4.588 -3.801,-9.497 -5.863,-14.591 l 0,0 C 89.029,93.759 75.08,84.783 61.908,84.813 l 0,0 c -7.42,0.012 -14.584,2.757 -20.424,9.269 l 0,0 c -3.777,4.072 -5.744,8.633 -6.701,13.592 l 0,0 -0.533,2.766 -1.992,-1.994 C 24.473,100.624 15.762,93.559 11.981,86.294 l 0,0 C 10.317,83.064 9.501,79.097 9.499,74.696 l 0,0 C 9.522,59.274 19.513,38.202 41.673,24.048 l 0,0 c 0.121,-0.058 11.336,-6.743 25.654,-6.76 l 0,0 c 11.076,-0.029 24.076,4.154 34.564,18.488 l 0,0 -1.201,0.885 -1.207,0.885 C 89.49,23.98 77.689,20.303 67.326,20.272 l 0,0 C 57.297,20.267 48.668,23.863 45.033,25.648 l 0,0 c -1.146,0.562 -1.768,0.926 -1.795,0.945 l 0,0 C 21.91,40.17 12.461,60.52 12.484,74.695 l 0,0 c -0.002,4.031 0.764,7.537 2.15,10.232 l 0,0 c 2.965,5.83 10.473,12.371 17.826,19.53 l 0,0 c 1.207,-4.415 3.33,-8.638 6.814,-12.386 l 0,0 C 45.631,84.948 53.741,81.813 61.907,81.823 l 0,0 c 14.531,0.033 29.268,9.635 36.551,23.492 l 0,0 0.037,0.07 0.029,0.067 c 1.906,4.813 4.936,9.806 6.035,15.121 l 0,0 c 4.174,14.294 7.025,30.393 7.025,46.218 l 0,0 c 0,16.453 -3.08,32.652 -11.057,46.133 l 0,0 c 5.793,-5.438 9.895,-12.117 11.24,-18.406 l 0,0 c 1.412,-6.479 3.801,-32.933 3.793,-62.664 l 0,0 c 0,-18.082 -0.875,-37.441 -3.34,-54.407 l 0,0 C 109.765,60.483 105.652,45.905 99.48,37.544 l 0,0 1.207,-0.885 1.201,-0.885 c 6.703,9.168 10.771,24.053 13.283,41.242 l 0,0 c 2.5,17.182 3.373,36.652 3.373,54.838 l 0,0 c -0.006,29.961 -2.352,56.26 -3.859,63.297 l 0,0 c -2.135,9.771 -9.781,19.707 -20.043,25.988 l 0,0 -1.931,-2.219 0,0 z"
                 inkscape:connector-curvature="0" />
            </g>
            <g
               id="g3518">
              <circle
                 id="circle3520"
                 r="13.35"
                 cy="46.556"
                 cx="77.628998"
                 d="m 90.978998,46.556 c 0,7.373001 -5.976999,13.35 -13.35,13.35 -7.373002,0 -13.350001,-5.976999 -13.350001,-13.35 0,-7.373002 5.976999,-13.350001 13.350001,-13.350001 7.373001,0 13.35,5.976999 13.35,13.350001 z"
                 sodipodi:cx="77.628998"
                 sodipodi:cy="46.556"
                 sodipodi:rx="13.35"
                 sodipodi:ry="13.35"
                 style="fill:#ffffff" />
              <path
                 id="path3522"
                 d="m 62.783,46.556 c 0.004,-8.198 6.645,-14.843 14.844,-14.843 l 0,0 c 8.199,0 14.844,6.645 14.846,14.843 l 0,0 c -0.002,8.198 -6.646,14.843 -14.846,14.843 l 0,0 C 69.428,61.398 62.787,54.754 62.783,46.556 l 0,0 z m 2.988,0 c 0.012,6.548 5.311,11.847 11.855,11.856 l 0,0 c 6.551,-0.01 11.848,-5.309 11.857,-11.856 l 0,0 C 89.473,40.008 84.176,34.711 77.626,34.7 l 0,0 c -6.544,0.011 -11.843,5.308 -11.855,11.856 l 0,0 z"
                 inkscape:connector-curvature="0" />
            </g>
            <g
               id="g3524">
              <path
                 id="path3526"
                 d="m 81.068,46.556 c 0,1.897 -1.539,3.44 -3.441,3.44 -1.898,0 -3.436,-1.543 -3.436,-3.44 0,-1.897 1.537,-3.438 3.436,-3.438 1.902,-0.001 3.441,1.54 3.441,3.438 z"
                 inkscape:connector-curvature="0" />
            </g>
            <g
               id="g3528">
              <path
                 id="path3530"
                 d="m 27.467,87.229 c 0,0 4.447,-4.047 11.326,-6.877 6.875,-2.834 18.203,-4.047 18.203,-4.047 0,0 3.238,-1.213 3.238,-6.473 0,-5.259 -12.541,-6.877 -21.441,-3.234 -8.898,3.638 -16.182,15.773 -11.326,20.631 z"
                 inkscape:connector-curvature="0"
                 style="fill:#f15a24" />
            </g>
            <g
               id="g3532">
              <polygon
                 id="polygon3534"
                 points="53.916,210.381 38.377,221.742 29.689,211.633 33.867,222.074 25.512,217.898 30.107,224.58 22.588,223.746 45.891,235.582 41.102,226.535 56.422,215.393 "
                 style="fill:#f15a24" />
            </g>
          </g>
          <g
             id="g3536">
            <g
               id="g3538">
              <path
                 id="path3540"
                 d="m 212.371,161.426 c 0,0 -16.459,-17.162 -23.041,-15.986 -6.584,1.176 -11.988,32.209 -11.988,32.209 0,0 16.926,-13.872 35.029,-16.223 z"
                 inkscape:connector-curvature="0" />
              <path
                 id="path3542"
                 d="m 175.869,177.391 c 0.004,-0.021 1.041,-5.986 2.771,-12.828 l 0,0 c 1.768,-6.872 4.066,-14.497 7.123,-18.342 l 0,0 c 0.895,-1.092 1.918,-1.987 3.293,-2.252 l 0,0 c 0.322,-0.056 0.645,-0.079 0.959,-0.084 l 0,0 c 2.301,0.033 4.68,1.184 7.221,2.735 l 0,0 c 2.521,1.565 5.143,3.611 7.537,5.646 l 0,0 c 4.783,4.068 8.654,8.105 8.672,8.127 l 0,0 -1.076,1.033 1.076,-1.033 2.049,2.137 -2.932,0.379 c -13.117,1.686 -25.924,9.799 -31.426,13.749 l 0,0 c -1.84,1.315 -2.848,2.146 -2.852,2.146 l 0,0 -3.109,2.548 0.694,-3.961 0,0 z m 14.147,-30.516 c -0.164,0 -0.305,0.012 -0.426,0.035 l 0,0 c -0.26,0.027 -0.846,0.361 -1.506,1.189 l 0,0 c -0.658,0.813 -1.369,2.031 -2.053,3.5 l 0,0 c -1.369,2.939 -2.652,6.874 -3.725,10.779 l 0,0 c -1.217,4.414 -2.17,8.785 -2.773,11.758 l 0,0 c 5.357,-3.826 16.939,-11.215 29.727,-13.711 l 0,0 c -0.846,-0.83 -1.92,-1.856 -3.135,-2.979 l 0,0 c -3.033,-2.786 -6.977,-6.129 -10.465,-8.289 l 0,0 c -2.266,-1.43 -4.387,-2.285 -5.58,-2.285 l 0,0 c -0.023,10e-4 -0.045,0.003 -0.064,0.003 l 0,0 z"
                 inkscape:connector-curvature="0" />
            </g>
            <g
               id="g3544">
              <circle
                 id="circle3546"
                 r="10.518"
                 cy="55.908001"
                 cx="211.07401"
                 d="m 221.592,55.908001 c 0,5.808931 -4.70906,10.518 -10.51799,10.518 -5.80894,0 -10.518,-4.709069 -10.518,-10.518 0,-5.808931 4.70906,-10.518 10.518,-10.518 5.80893,0 10.51799,4.709069 10.51799,10.518 z"
                 sodipodi:cx="211.07401"
                 sodipodi:cy="55.908001"
                 sodipodi:rx="10.518"
                 sodipodi:ry="10.518"
                 style="fill:#ffffff" />
              <path
                 id="path3548"
                 d="m 199.061,55.906 c 0.002,-6.635 5.377,-12.011 12.016,-12.011 l 0,0 c 6.631,0 12.01,5.376 12.01,12.011 l 0,0 c 0,6.638 -5.379,12.01 -12.01,12.012 l 0,0 c -6.639,0 -12.015,-5.376 -12.016,-12.012 l 0,0 z m 12.015,9.028 c 4.98,-0.01 9.014,-4.045 9.023,-9.027 l 0,0 c -0.01,-4.984 -4.043,-9.014 -9.023,-9.023 l 0,0 c -4.988,0.01 -9.018,4.039 -9.027,9.023 l 0,0 c 0.01,4.982 4.039,9.017 9.027,9.027 l 0,0 z"
                 inkscape:connector-curvature="0" />
            </g>
            <g
               id="g3550">
              <circle
                 id="circle3552"
                 r="2.7090001"
                 cy="55.908001"
                 cx="211.07401"
                 d="m 213.78301,55.908001 c 0,1.496139 -1.21287,2.709 -2.709,2.709 -1.49614,0 -2.709,-1.212861 -2.709,-2.709 0,-1.49614 1.21286,-2.709 2.709,-2.709 1.49613,0 2.709,1.21286 2.709,2.709 z"
                 sodipodi:cx="211.07401"
                 sodipodi:cy="55.908001"
                 sodipodi:rx="2.7090001"
                 sodipodi:ry="2.7090001" />
            </g>
            <g
               id="g3554">
              <path
                 id="path3556"
                 d="m 121.891,120.945 c 0.996,-4.979 3.98,-9.959 5.973,-14.936 10.951,-20.908 39.824,-31.857 56.748,-12.942 3.986,4.294 6.082,9.159 7.072,14.324 -7.562,7.567 -14.389,15.82 -15.184,25.146 -1.619,19.013 10.518,42.477 8.09,59.061 -2.43,16.588 -13.35,34.389 -32.768,34.389 -7.416,0 -14.537,-2.367 -20.688,-6.117 -21.236,-25.905 -18.593,-66.985 -9.243,-98.925 z"
                 inkscape:connector-curvature="0"
                 style="fill:#ffffff" />
              <path
                 id="path3558"
                 d="m 151.822,227.479 c -7.74,0 -15.117,-2.465 -21.465,-6.338 l 0,0 -0.215,-0.131 -0.164,-0.197 c -12.1,-14.768 -16.564,-34.211 -16.566,-54.02 l 0,0 c 0.002,-15.828 2.85,-31.926 7.029,-46.218 l 0,0 c 1.098,-5.313 4.127,-10.308 6.033,-15.121 l 0,0 0.027,-0.073 0.037,-0.064 c 7.281,-13.855 22.018,-23.459 36.553,-23.488 l 0,0 c 8.162,-0.014 16.273,3.119 22.613,10.223 l 0,0 c 4.197,4.516 6.418,9.684 7.447,15.061 l 0,0 0.148,0.773 -0.561,0.563 c -7.523,7.499 -14.053,15.565 -14.754,24.214 l 0,0 c -0.098,1.15 -0.145,2.322 -0.141,3.512 l 0,0 c -0.051,16.051 8.504,35.193 8.561,50.707 l 0,0 c -0.002,1.688 -0.107,3.334 -0.34,4.936 l 0,0 c -1.252,8.529 -4.662,17.359 -10.344,24.152 l 0,0 c -5.658,6.783 -13.701,11.51 -23.867,11.51 l 0,0 c -0.009,-10e-4 -0.019,-10e-4 -0.031,-10e-4 l 0,0 z m 0,-2.987 c 9.236,-0.012 16.352,-4.182 21.609,-10.439 l 0,0 c 5.242,-6.25 8.504,-14.613 9.68,-22.666 l 0,0 c 0.209,-1.439 0.307,-2.941 0.305,-4.506 l 0,0 c 0.055,-14.502 -8.512,-33.732 -8.562,-50.707 l 0,0 c 0.006,-1.268 0.051,-2.522 0.16,-3.764 l 0,0 c 0.861,-9.754 7.664,-18.02 15.049,-25.504 l 0,0 c -1.01,-4.662 -2.965,-8.963 -6.564,-12.844 l 0,0 c -5.826,-6.492 -12.988,-9.237 -20.406,-9.249 l 0,0 c -13.174,-0.03 -27.125,8.946 -33.875,21.83 l 0,0 c -2.064,5.097 -4.965,10.003 -5.863,14.591 l 0,0 -0.014,0.07 -0.02,0.057 c -4.117,14.074 -6.924,29.943 -6.92,45.432 l 0,0 c -0.004,19.291 4.348,37.934 15.729,51.93 l 0,0 c 5.901,3.556 12.682,5.769 19.692,5.769 l 0,0 z"
                 inkscape:connector-curvature="0" />
            </g>
            <g
               id="g3560">
              <path
                 id="path3562"
                 d="m 124.314,36.66 c 23.461,-31.958 58.254,-11.326 58.254,-11.326 27.914,17.799 36.002,46.925 29.127,60.277 -3.504,6.802 -12.152,13.92 -20.012,21.78 -0.99,-5.165 -3.086,-10.03 -7.072,-14.324 -16.924,-18.915 -45.797,-7.966 -56.748,12.942 -1.992,4.977 -4.977,9.956 -5.973,14.936 -9.35,31.939 -11.992,73.02 9.244,98.924 -9.951,-6.074 -17.363,-15.783 -19.361,-25.033 C 108.535,179.869 100.848,68.619 124.314,36.66 z"
                 inkscape:connector-curvature="0" />
              <path
                 id="path3564"
                 d="m 110.312,195.152 c -1.51,-7.037 -3.854,-33.334 -3.863,-63.294 l 0,0 c 0,-18.184 0.873,-37.659 3.373,-54.841 l 0,0 c 2.514,-17.189 6.582,-32.074 13.289,-41.242 l 0,0 c 10.488,-14.334 23.486,-18.518 34.564,-18.488 l 0,0 c 14.312,0.017 25.529,6.702 25.695,6.786 l 0,0 c 22.119,14.128 32.109,35.203 32.133,50.624 l 0,0 c -0.004,4.401 -0.82,8.365 -2.482,11.596 l 0,0 c -3.787,7.266 -12.492,14.33 -20.281,22.152 l 0,0 -1.992,1.994 -0.529,-2.766 c -0.959,-4.959 -2.928,-9.52 -6.721,-13.611 l 0,0 C 177.676,87.57 170.51,84.825 163.092,84.813 l 0,0 c -13.174,-0.03 -27.125,8.946 -33.875,21.83 l 0,0 c -2.064,5.094 -4.963,10.003 -5.863,14.591 l 0,0 -0.014,0.07 -0.02,0.057 c -4.117,14.076 -6.924,29.943 -6.924,45.432 l 0,0 c 0,19.383 4.391,38.105 15.893,52.127 l 0,0 -1.932,2.221 c -10.261,-6.282 -17.91,-16.217 -20.045,-25.989 l 0,0 z m 2.467,-117.704 c -2.469,16.966 -3.344,36.325 -3.344,54.41 l 0,0 c -0.01,29.731 2.385,56.183 3.797,62.661 l 0,0 c 1.342,6.289 5.443,12.969 11.238,18.406 l 0,0 c -7.975,-13.48 -11.057,-29.682 -11.059,-46.133 l 0,0 c 0.002,-15.825 2.85,-31.924 7.029,-46.218 l 0,0 c 1.098,-5.315 4.127,-10.308 6.035,-15.121 l 0,0 0.027,-0.073 0.033,-0.064 c 7.283,-13.857 22.02,-23.459 36.555,-23.492 l 0,0 c 8.162,-0.01 16.273,3.125 22.613,10.225 l 0,0 c 3.504,3.768 5.629,7.989 6.834,12.406 l 0,0 c 7.354,-7.156 14.861,-13.697 17.826,-19.527 l 0,0 c 1.389,-2.692 2.15,-6.201 2.148,-10.23 l 0,0 c 0.021,-14.178 -9.422,-34.53 -30.709,-48.08 l 0,0 c -0.002,0.002 -0.629,-0.375 -1.838,-0.969 l 0,0 c -1.211,-0.594 -2.979,-1.391 -5.166,-2.189 l 0,0 c -4.379,-1.598 -10.443,-3.187 -17.125,-3.187 l 0,0 c -10.367,0.03 -22.168,3.708 -32.158,17.272 l 0,0 c -6.167,8.361 -10.286,22.942 -12.736,39.903 l 0,0 z"
                 inkscape:connector-curvature="0" />
            </g>
            <g
               id="g3566">
              <circle
                 id="circle3568"
                 r="13.35"
                 cy="46.556"
                 cx="147.371"
                 d="m 160.721,46.556 c 0,7.373001 -5.977,13.35 -13.35,13.35 -7.373,0 -13.35,-5.976999 -13.35,-13.35 0,-7.373002 5.977,-13.350001 13.35,-13.350001 7.373,0 13.35,5.976999 13.35,13.350001 z"
                 sodipodi:cx="147.371"
                 sodipodi:cy="46.556"
                 sodipodi:rx="13.35"
                 sodipodi:ry="13.35"
                 style="fill:#ffffff" />
              <path
                 id="path3570"
                 d="m 132.531,46.556 c 0,-8.198 6.643,-14.841 14.842,-14.843 l 0,0 c 8.195,0.002 14.84,6.645 14.844,14.843 l 0,0 c -0.004,8.2 -6.648,14.843 -14.844,14.843 l 0,0 c -8.199,-10e-4 -14.842,-6.643 -14.842,-14.843 l 0,0 z m 14.842,11.856 c 6.547,-0.01 11.842,-5.312 11.854,-11.856 l 0,0 C 159.215,40.008 153.92,34.711 147.373,34.7 l 0,0 c -6.549,0.012 -11.846,5.309 -11.857,11.856 l 0,0 c 0.011,6.545 5.308,11.846 11.857,11.856 l 0,0 z"
                 inkscape:connector-curvature="0" />
            </g>
            <g
               id="g3572">
              <circle
                 id="circle3574"
                 r="3.438"
                 cy="46.556"
                 cx="147.37199"
                 d="m 150.80999,46.556 c 0,1.898755 -1.53924,3.438 -3.438,3.438 -1.89875,0 -3.438,-1.539245 -3.438,-3.438 0,-1.898755 1.53925,-3.438 3.438,-3.438 1.89876,0 3.438,1.539245 3.438,3.438 z"
                 sodipodi:cx="147.37199"
                 sodipodi:cy="46.556"
                 sodipodi:rx="3.438"
                 sodipodi:ry="3.438" />
            </g>
            <g
               id="g3576">
              <path
                 id="path3578"
                 d="m 197.535,87.229 c 0,0 -4.449,-4.047 -11.326,-6.877 -6.877,-2.834 -18.205,-4.047 -18.205,-4.047 0,0 -3.238,-1.213 -3.238,-6.473 0,-5.259 12.543,-6.877 21.443,-3.234 8.898,3.638 16.182,15.773 11.326,20.631 z"
                 inkscape:connector-curvature="0"
                 style="fill:#f15a24" />
            </g>
            <g
               id="g3580">
              <polygon
                 id="polygon3582"
                 points="171.086,210.381 186.625,221.742 195.312,211.633 191.133,222.074 199.486,217.898 194.893,224.58 202.414,223.746 179.111,235.582 183.9,226.535 168.58,215.393 "
                 style="fill:#f15a24" />
            </g>
          </g>
        </g>
      </g>
    </g>
  </g>
</svg>
