<?xml version="1.0" encoding="UTF-8" standalone="no"?>
<!-- Created with Inkscape (http://www.inkscape.org/) -->

<svg
   xmlns:dc="http://purl.org/dc/elements/1.1/"
   xmlns:cc="http://creativecommons.org/ns#"
   xmlns:rdf="http://www.w3.org/1999/02/22-rdf-syntax-ns#"
   xmlns:svg="http://www.w3.org/2000/svg"
   xmlns="http://www.w3.org/2000/svg"
   xmlns:sodipodi="http://sodipodi.sourceforge.net/DTD/sodipodi-0.dtd"
   xmlns:inkscape="http://www.inkscape.org/namespaces/inkscape"
   width="651.24463"
   height="262.61774"
   id="svg2604"
   sodipodi:version="0.32"
   inkscape:version="0.48.1 r9760"
   sodipodi:docname="logo.svg"
   inkscape:output_extension="org.inkscape.output.svg.inkscape"
   version="1.1">
  <defs
     id="defs2606">
    <inkscape:perspective
       sodipodi:type="inkscape:persp3d"
       inkscape:vp_x="0 : 526.18109 : 1"
       inkscape:vp_y="0 : 1000 : 0"
       inkscape:vp_z="744.09448 : 526.18109 : 1"
       inkscape:persp3d-origin="372.04724 : 350.78739 : 1"
       id="perspective2612" />
  </defs>
  <sodipodi:namedview
     id="base"
     pagecolor="#ffffff"
     bordercolor="#666666"
     borderopacity="1.0"
     inkscape:pageopacity="0.0"
     inkscape:pageshadow="2"
     inkscape:zoom="0.76"
     inkscape:cx="17.671148"
     inkscape:cy="181.96161"
     inkscape:document-units="px"
     inkscape:current-layer="layer1"
     showgrid="false"
     showguides="true"
     inkscape:guide-bbox="true"
     inkscape:window-width="1360"
     inkscape:window-height="744"
     inkscape:window-x="0"
     inkscape:window-y="24"
     inkscape:window-maximized="1">
    <sodipodi:guide
       orientation="0,1"
       position="228.17249,-0.29727492"
       id="guide2656" />
  </sodipodi:namedview>
  <metadata
     id="metadata2609">
    <rdf:RDF>
      <cc:Work
         rdf:about="">
        <dc:format>image/svg+xml</dc:format>
        <dc:type
           rdf:resource="http://purl.org/dc/dcmitype/StillImage" />
        <dc:title></dc:title>
      </cc:Work>
    </rdf:RDF>
  </metadata>
  <g
     inkscape:label="Capa 1"
     inkscape:groupmode="layer"
     id="layer1"
     transform="translate(-94.68465,-155.16146)"
     style="display:inline">
    <g
       id="g3026"
       transform="matrix(1.0303725,0,0,0.95535881,2.6500737,16.06097)">
      <ellipse
         d="m 562.39001,304 c 0,157.07807 -116.94098,284.41501 -261.195,284.41501 C 156.94099,588.41501 40,461.07807 40,304 40,146.92193 156.94099,19.584991 301.19501,19.584991 c 144.25402,0 261.195,127.336939 261.195,284.415009 z"
         inkscape:export-ydpi="90"
         inkscape:export-xdpi="90"
         inkscape:export-filename="/home/joseantonio/logo.png"
         transform="matrix(0.4592278,0,0,0.4592278,76.545152,146.3971)"
         clip-rule="evenodd"
         stroke-miterlimit="3.8637"
         cx="301.19501"
         cy="304"
         rx="261.19501"
         ry="284.41501"
         id="ellipse2538"
         sodipodi:cx="301.19501"
         sodipodi:cy="304"
         sodipodi:rx="261.19501"
         sodipodi:ry="284.41501"
         style="fill:#abb7ca;fill-rule:evenodd;stroke:#abb7ca;stroke-miterlimit:3.86369991" />
      <g
         inkscape:export-ydpi="90"
         inkscape:export-xdpi="90"
         inkscape:export-filename="/home/joseantonio/logo.png"
         transform="matrix(0.4592278,0,0,0.4592278,76.545152,146.3971)"
         id="g2540">
        <g
           id="g2542">
          <ellipse
             d="m 104.255,122.837 c 0,16.94851 -14.312112,30.688 -31.966998,30.688 -17.654886,0 -31.966999,-13.73949 -31.966999,-30.688 0,-16.94852 14.312113,-30.688002 31.966999,-30.688002 17.654886,0 31.966998,13.739482 31.966998,30.688002 z"
             clip-rule="evenodd"
             stroke-miterlimit="3.8637"
             cx="72.288002"
             cy="122.837"
             rx="31.966999"
             ry="30.688"
             id="ellipse2544"
             sodipodi:cx="72.288002"
             sodipodi:cy="122.837"
             sodipodi:rx="31.966999"
             sodipodi:ry="30.688"
             style="fill-rule:evenodd;stroke:#000000;stroke-miterlimit:3.86369991" />
          <circle
             d="m 93.959999,123.136 c 0,12.32645 -9.992557,22.319 -22.319,22.319 -12.326444,0 -22.319,-9.99255 -22.319,-22.319 0,-12.32644 9.992556,-22.319 22.319,-22.319 12.326443,0 22.319,9.99256 22.319,22.319 z"
             clip-rule="evenodd"
             stroke-miterlimit="3.8637"
             cx="71.640999"
             cy="123.136"
             r="22.319"
             id="circle2546"
             sodipodi:cx="71.640999"
             sodipodi:cy="123.136"
             sodipodi:rx="22.319"
             sodipodi:ry="22.319"
             style="fill:#ffffff;fill-rule:evenodd;stroke:#ffffff;stroke-miterlimit:3.86369991" />
          <circle
             d="m 77.860003,123.085 c 0,4.01456 -3.254442,7.269 -7.269,7.269 -4.014557,0 -7.269,-3.25444 -7.269,-7.269 0,-4.01456 3.254443,-7.269 7.269,-7.269 4.014558,0 7.269,3.25444 7.269,7.269 z"
             clip-rule="evenodd"
             stroke-miterlimit="3.8637"
             cx="70.591003"
             cy="123.085"
             r="7.2690001"
             id="circle2548"
             sodipodi:cx="70.591003"
             sodipodi:cy="123.085"
             sodipodi:rx="7.2690001"
             sodipodi:ry="7.2690001"
             style="fill-rule:evenodd;stroke:#000000;stroke-miterlimit:3.86369991" />
        </g>
        <g
           id="g2550">
          <path
             inkscape:connector-curvature="0"
             clip-rule="evenodd"
             stroke-miterlimit="3.8637"
             d="m 61.333,149.667 c -16.666,63.333 55.334,108.666 55.334,108.666 50.667,42.667 31.399,100.159 18.252,160.415 -26.252,90.919 41.748,138.919 82.415,138.919 94.667,-4.667 101.333,-128 86.667,-128 L 302.919,135.528 C 295.953,91.141 273.562,46.665 235.894,31.857 211.277,17.486 179.219,21.515 144,35.667 113.479,56.009 95.478,72.408 85.724,93.139 80.097,99.085 61.926,143.046 61.333,149.667 z"
             id="path2552"
             style="fill-rule:evenodd;stroke:#000000;stroke-width:4;stroke-miterlimit:3.86369991" />
          <path
             inkscape:connector-curvature="0"
             clip-rule="evenodd"
             stroke-miterlimit="3.8637"
             d="m 174.667,173.667 c 8.672,-10.183 8.894,-17.961 0.667,-23.333 -47.434,-27.498 -84.667,34 -72.667,50.667 16.306,-14.882 40.307,-23.994 72,-27.334 z"
             id="path2554"
             style="fill:#e95b2a;fill-rule:evenodd;stroke:#e95b2a;stroke-miterlimit:3.86369991" />
          <path
             inkscape:connector-curvature="0"
             clip-rule="evenodd"
             stroke-miterlimit="3.8637"
             d="m 121.346,249.667 c 14.902,-67.879 99.321,-77.333 142.667,0.667 36.798,83.813 42.472,236.617 -1.346,282.667 -58.012,46 -136.667,4 -124,-105.333 30.666,-111.335 22.666,-143.335 -17.321,-178.001 z"
             id="path2556"
             style="fill:#ffffff;fill-rule:evenodd;stroke:#ffffff;stroke-miterlimit:3.86369991" />
        </g>
        <path
           inkscape:connector-curvature="0"
           clip-rule="evenodd"
           stroke-miterlimit="3.8637"
           d="m 59.333,392.667 c 27.793,4.353 52.286,14.526 73.477,30.519 13.307,-40.449 9.037,-66.178 -12.81,-77.186 -12.884,1.09 -33.107,16.646 -60.667,46.667 z"
           id="path2558"
           style="fill-rule:evenodd;stroke:#000000;stroke-miterlimit:3.86369991" />
        <polygon
           clip-rule="evenodd"
           stroke-miterlimit="3.8637"
           points="133.85,557.193 169.849,528.527 169.849,528.527 163.182,517.86 128.516,545.193 107.849,521.194 115.183,543.86 97.183,536.527 106.517,551.86 90.517,549.86 145.184,581.192 "
           id="polygon2560"
           style="fill:#e95b2a;fill-rule:evenodd;stroke:#e95b2a;stroke-miterlimit:3.86369991" />
      </g>
      <g
         inkscape:export-ydpi="90"
         inkscape:export-xdpi="90"
         inkscape:export-filename="/home/joseantonio/logo.png"
         transform="matrix(0.4592278,0,0,0.4592278,76.545152,146.3971)"
         id="g2562">
        <ellipse
           d="m 247.33299,98.333 c 0,16.38463 -12.08831,29.667 -27,29.667 -14.91169,0 -27,-13.28237 -27,-29.667 0,-16.384631 12.08831,-29.667 27,-29.667 14.91169,0 27,13.282369 27,29.667 z"
           clip-rule="evenodd"
           stroke-miterlimit="3.8637"
           cx="220.33299"
           cy="98.333"
           rx="27"
           ry="29.667"
           id="ellipse2564"
           sodipodi:cx="220.33299"
           sodipodi:cy="98.333"
           sodipodi:rx="27"
           sodipodi:ry="29.667"
           style="fill:#ffffff;fill-rule:evenodd;stroke:#ffffff;stroke-miterlimit:3.86369991" />
        <ellipse
           d="m 228.00001,99.613998 c 0,5.552122 -3.73081,10.053002 -8.333,10.053002 -4.60219,0 -8.333,-4.50088 -8.333,-10.053002 0,-5.552118 3.73081,-10.053 8.333,-10.053 4.60219,0 8.333,4.500882 8.333,10.053 z"
           clip-rule="evenodd"
           stroke-miterlimit="3.8637"
           cx="219.66701"
           cy="99.613998"
           rx="8.3330002"
           ry="10.053"
           id="ellipse2566"
           sodipodi:cx="219.66701"
           sodipodi:cy="99.613998"
           sodipodi:rx="8.3330002"
           sodipodi:ry="10.053"
           style="fill-rule:evenodd;stroke:#000000;stroke-miterlimit:3.86369991" />
      </g>
      <g
         inkscape:export-ydpi="90"
         inkscape:export-xdpi="90"
         inkscape:export-filename="/home/joseantonio/logo.png"
         transform="matrix(0.4592278,0,0,0.4592278,76.545152,146.3971)"
         id="g2568">
        <g
           id="g2570">
          <ellipse
             d="m 567.34499,125.837 c 0,16.94851 -14.31211,30.688 -31.967,30.688 -17.65489,0 -31.967,-13.73949 -31.967,-30.688 0,-16.94852 14.31211,-30.688002 31.967,-30.688002 17.65489,0 31.967,13.739482 31.967,30.688002 z"
             clip-rule="evenodd"
             stroke-miterlimit="3.8637"
             cx="535.37799"
             cy="125.837"
             rx="31.966999"
             ry="30.688"
             id="ellipse2572"
             sodipodi:cx="535.37799"
             sodipodi:cy="125.837"
             sodipodi:rx="31.966999"
             sodipodi:ry="30.688"
             style="fill-rule:evenodd;stroke:#000000;stroke-miterlimit:3.86369991" />
          <circle
             d="m 558.345,126.136 c 0,12.32645 -9.99256,22.319 -22.319,22.319 -12.32644,0 -22.319,-9.99255 -22.319,-22.319 0,-12.32644 9.99256,-22.319 22.319,-22.319 12.32644,0 22.319,9.99256 22.319,22.319 z"
             clip-rule="evenodd"
             stroke-miterlimit="3.8637"
             cx="536.026"
             cy="126.136"
             r="22.319"
             id="circle2574"
             sodipodi:cx="536.026"
             sodipodi:cy="126.136"
             sodipodi:rx="22.319"
             sodipodi:ry="22.319"
             style="fill:#ffffff;fill-rule:evenodd;stroke:#ffffff;stroke-miterlimit:3.86369991" />
          <circle
             d="m 544.34599,126.085 c 0,4.01511 -3.25489,7.27 -7.27,7.27 -4.01511,0 -7.27,-3.25489 -7.27,-7.27 0,-4.01511 3.25489,-7.27 7.27,-7.27 4.01511,0 7.27,3.25489 7.27,7.27 z"
             clip-rule="evenodd"
             stroke-miterlimit="3.8637"
             cx="537.07599"
             cy="126.085"
             r="7.27"
             id="circle2576"
             sodipodi:cx="537.07599"
             sodipodi:cy="126.085"
             sodipodi:rx="7.27"
             sodipodi:ry="7.27"
             style="fill-rule:evenodd;stroke:#000000;stroke-miterlimit:3.86369991" />
        </g>
        <g
           id="g2578">
          <path
             inkscape:connector-curvature="0"
             clip-rule="evenodd"
             stroke-miterlimit="3.8637"
             d="M 546.333,152.667 C 563,216 491,261.333 491,261.333 440.333,304 459.602,361.493 472.748,421.748 499,512.667 431,560.667 390.333,560.667 295.666,556 289,432.667 303.666,432.667 l 1.082,-294.139 c 6.967,-44.387 29.357,-88.863 67.025,-103.671 24.616,-14.372 56.674,-10.343 91.894,3.809 30.521,20.342 48.521,36.741 58.276,57.472 5.627,5.947 23.797,49.908 24.39,56.529 z"
             id="path2580"
             style="fill-rule:evenodd;stroke:#000000;stroke-width:4;stroke-miterlimit:3.86369991" />
          <path
             inkscape:connector-curvature="0"
             clip-rule="evenodd"
             stroke-miterlimit="3.8637"
             d="m 433,176.667 c -8.672,-10.183 -8.894,-17.961 -0.667,-23.333 C 479.768,125.835 517,187.333 505,204 488.693,189.119 464.693,180.007 433,176.667 z"
             id="path2582"
             style="fill:#e95b2a;fill-rule:evenodd;stroke:#e95b2a;stroke-miterlimit:3.86369991" />
          <path
             inkscape:connector-curvature="0"
             clip-rule="evenodd"
             stroke-miterlimit="3.8637"
             d="M 486.321,252.667 C 471.419,184.788 387,175.334 343.654,253.334 306.855,337.146 301.182,489.95 345,536 c 58.013,46 136.667,4 124,-105.333 -30.667,-111.334 -22.667,-143.334 17.321,-178 z"
             id="path2584"
             style="fill:#ffffff;fill-rule:evenodd;stroke:#ffffff;stroke-miterlimit:3.86369991" />
        </g>
        <path
           inkscape:connector-curvature="0"
           clip-rule="evenodd"
           stroke-miterlimit="3.8637"
           d="m 548.333,395.667 c -27.793,4.353 -52.286,14.526 -73.477,30.519 -13.308,-40.448 -9.037,-66.178 12.811,-77.186 12.884,1.09 33.106,16.646 60.666,46.667 z"
           id="path2586"
           style="fill-rule:evenodd;stroke:#000000;stroke-miterlimit:3.86369991" />
        <polygon
           clip-rule="evenodd"
           stroke-miterlimit="3.8637"
           points="473.816,560.193 437.817,531.527 437.817,531.527 444.484,520.86 479.15,548.193 499.817,524.194 492.483,546.86 510.483,539.527 501.15,554.86 517.15,552.86 462.483,584.192 "
           id="polygon2588"
           style="fill:#e95b2a;fill-rule:evenodd;stroke:#e95b2a;stroke-miterlimit:3.86369991" />
      </g>
      <g
         inkscape:export-ydpi="90"
         inkscape:export-xdpi="90"
         inkscape:export-filename="/home/joseantonio/logo.png"
         transform="matrix(0.4592278,0,0,0.4592278,76.545152,146.3971)"
         id="g2590">
        <ellipse
           d="m 411.33301,98.771004 c 0,16.384636 -12.08831,29.666996 -27,29.666996 -14.91169,0 -27,-13.28236 -27,-29.666996 0,-16.384632 12.08831,-29.667 27,-29.667 14.91169,0 27,13.282368 27,29.667 z"
           clip-rule="evenodd"
           stroke-miterlimit="3.8637"
           cx="384.33301"
           cy="98.771004"
           rx="27"
           ry="29.667"
           id="ellipse2592"
           sodipodi:cx="384.33301"
           sodipodi:cy="98.771004"
           sodipodi:rx="27"
           sodipodi:ry="29.667"
           style="fill:#ffffff;fill-rule:evenodd;stroke:#ffffff;stroke-miterlimit:3.86369991" />
        <ellipse
           d="m 391.99999,100.053 c 0,5.55212 -3.73081,10.053 -8.333,10.053 -4.60219,0 -8.333,-4.50088 -8.333,-10.053 0,-5.552117 3.73081,-10.052999 8.333,-10.052999 4.60219,0 8.333,4.500882 8.333,10.052999 z"
           clip-rule="evenodd"
           stroke-miterlimit="3.8637"
           cx="383.66699"
           cy="100.053"
           rx="8.3330002"
           ry="10.053"
           id="ellipse2594"
           sodipodi:cx="383.66699"
           sodipodi:cy="100.053"
           sodipodi:rx="8.3330002"
           sodipodi:ry="10.053"
           style="fill-rule:evenodd;stroke:#000000;stroke-miterlimit:3.86369991" />
      </g>
    </g>
    <rect
       style="fill:none"
       id="rect2596"
       height="46.526497"
       width="223.99539"
       clip-rule="evenodd"
       y="289.79382"
       x="363.55521"
       inkscape:export-filename="/home/joseantonio/logo.png"
       inkscape:export-xdpi="90"
       inkscape:export-ydpi="90" />
    <text
       style="font-size:44.31165314px;fill:#abb7ca;font-family:Tahoma-Bold"
       id="text2598"
       font-size="60"
       x="363.55521"
       y="327.45874"
       inkscape:export-filename="/home/joseantonio/logo.png"
       inkscape:export-xdpi="90"
       inkscape:export-ydpi="90">
      <tspan
         style="font-size:48.74281693px;font-style:normal;font-variant:normal;font-weight:bold;font-stretch:normal;font-family:Liberation Mono;-inkscape-font-specification:Liberation Mono Bold"
         id="tspan2692">Oficina de</tspan>
    </text>
    <rect
       style="fill:none"
       id="rect2600"
       height="51.179222"
       width="283.3479"
       clip-rule="evenodd"
       y="328.19653"
       x="363.55521"
       inkscape:export-filename="/home/joseantonio/logo.png"
       inkscape:export-xdpi="90"
       inkscape:export-ydpi="90" />
    <text
       id="text2602"
       x="363.55521"
       y="365.63062"
       style="font-size:8.86233044px"
       inkscape:export-filename="/home/joseantonio/logo.png"
       inkscape:export-xdpi="90"
       inkscape:export-ydpi="90">
      <tspan
         style="font-size:48.74281693px;font-style:normal;font-variant:normal;font-weight:bold;font-stretch:normal;fill:#e95b2a;font-family:Ouhod;-inkscape-font-specification:Ouhod Bold"
         id="tspan2604"
         font-size="66"
         y="365.63062"
         x="363.55521">software libre</tspan>
    </text>
    <rect
       style="fill:none"
       id="rect2622"
       height="51.179222"
       width="236.99939"
       clip-rule="evenodd"
       y="366.59998"
       x="363.55521"
       inkscape:export-filename="/home/joseantonio/logo.png"
       inkscape:export-xdpi="90"
       inkscape:export-ydpi="90" />
    <text
       id="text2624"
       x="363.55521"
       y="405.06906"
       style="font-size:8.86233044px"
       inkscape:export-filename="/home/joseantonio/logo.png"
       inkscape:export-xdpi="90"
       inkscape:export-ydpi="90">
      <tspan
         style="font-size:48.74281693px;font-style:normal;font-variant:normal;font-weight:normal;font-stretch:normal;font-family:UnBatang;-inkscape-font-specification:UnBatang"
         id="tspan2626"
         font-size="66"
         y="405.06906"
         x="363.55521">ofis</tspan>
      <tspan
         style="font-size:48.74281693px;font-style:normal;font-variant:normal;font-weight:normal;font-stretch:normal;letter-spacing:-2.95411015;font-family:UnBatang;-inkscape-font-specification:UnBatang"
         id="tspan2628"
         letter-spacing="-4"
         font-size="66"
         y="405.06906"
         x="444.90399">l</tspan>
      <tspan
         style="font-size:48.74281693px;font-style:normal;font-variant:normal;font-weight:normal;font-stretch:normal;font-family:UnBatang;-inkscape-font-specification:UnBatang"
         id="tspan2630"
         font-size="66"
         y="405.06906"
         x="456.31573">.ug</tspan>
      <tspan
         style="font-size:48.74281693px;font-style:normal;font-variant:normal;font-weight:normal;font-stretch:normal;letter-spacing:-3.69263768;font-family:UnBatang;-inkscape-font-specification:UnBatang"
         id="tspan2632"
         letter-spacing="-5"
         font-size="66"
         y="405.06906"
         x="522.07568">r</tspan>
      <tspan
         style="font-size:48.74281693px;font-style:normal;font-variant:normal;font-weight:normal;font-stretch:normal;font-family:UnBatang;-inkscape-font-specification:UnBatang"
         id="tspan2634"
         font-size="66"
         y="405.06906"
         x="540.47241">.es</tspan>
    </text>
  </g>
</svg>
